<svg xmlns="http://www.w3.org/2000/svg" viewBox="0 0 1227 1189" width="1227" height="1189">
	<style>
		tspan { white-space:pre }
		.shp0 { fill: #f8f8f8 } 
		.shp1 { fill: #000000 } 
	</style>
	<g id="Слой_x0020_1">
		<path id="Layer" class="shp0" d="M1601.24 771.92L1549.73 771.92L1549.73 806.27L1691.69 806.27L1691.69 771.92L1639.6 771.92L1639.6 458.81L1691.69 458.81L1691.69 424.47L1549.73 424.47L1549.73 458.81L1601.24 458.81L1601.24 771.92Z" />
		<path id="1" fill-rule="evenodd" class="shp0" d="M1860.55 542.38L1860.55 508.04L1960.15 508.04C2003.65 508.04 2035.04 518.82 2054.31 540.38C2073.58 561.94 2083.22 599.63 2083.22 653.43C2083.22 679 2081.69 700.85 2078.64 718.98C2075.59 737.1 2069.77 752.65 2061.18 765.63C2052.59 778.6 2040.1 788.62 2023.69 795.68C2007.28 802.74 1986.1 806.27 1960.15 806.27L1860.55 806.27L1860.55 771.92L1891.46 771.92L1891.46 542.38L1860.55 542.38ZM1929.81 771.92L1970.45 771.92C1996.02 771.92 2014.53 763.34 2025.98 746.17C2037.43 728.99 2043.15 699.42 2043.15 657.44C2043.15 613.94 2037.14 583.88 2025.12 567.28C2013.1 550.68 1994.49 542.38 1969.31 542.38L1929.81 542.38L1929.81 771.92Z" />
		<path id="2" class="shp0" d="M2225.75 806.27L2411.79 806.27L2411.79 771.92L2264.1 771.92L2264.1 666.03L2386.03 666.03L2386.03 631.68L2264.1 631.68L2264.1 542.38L2411.79 542.38L2411.79 508.04L2225.75 508.04L2225.75 806.27Z" />
		<path id="3" class="shp0" d="M2551.45 806.27L2589.81 806.27L2589.81 633.97L2586.37 556.12L2587.52 554.98L2703.15 806.27L2750.66 806.27L2750.66 508.04L2712.3 508.04L2712.3 680.91L2715.74 758.19L2714.59 759.33L2598.97 508.04L2551.45 508.04L2551.45 806.27Z" />
		<path id="4" class="shp0" d="M2976.19 806.27L3014.54 806.27L3014.54 542.38L3095.25 542.38L3095.25 508.04L2893.76 508.04L2893.76 542.38L2976.19 542.38L2976.19 806.27Z" />
		<path id="5" class="shp0" d="M3276.71 806.27L3399.2 806.27L3399.2 771.92L3356.85 771.92L3356.85 542.38L3399.2 542.38L3399.2 508.04L3276.71 508.04L3276.71 542.38L3318.49 542.38L3318.49 771.92L3276.71 771.92L3276.71 806.27Z" />
		<path id="6" class="shp0" d="M3663.09 806.27L3701.44 806.27L3701.44 542.38L3782.15 542.38L3782.15 508.04L3580.66 508.04L3580.66 542.38L3663.09 542.38L3663.09 806.27Z" />
		<path id="7" class="shp0" d="M4024.86 654.01L3945.29 500.6L3909.23 519.49L4005.39 691.21L4005.39 806.27L4043.75 806.27L4043.75 691.21L4140.48 519.49L4104.42 500.6L4024.86 654.01Z" />
		<path id="Layer" fill-rule="evenodd" class="shp0" d="M319.9 147.21C309.78 145.18 311.8 147.21 305.73 151.25C299.66 157.33 283.47 165.42 279.42 173.52C287.52 167.45 289.54 145.18 285.49 128.99C283.47 112.8 277.4 100.66 269.3 90.54C259.18 92.56 259.18 90.54 255.13 98.63C253.11 100.66 249.06 106.73 247.04 108.75C232.87 133.04 238.94 187.68 253.11 195.78C240.97 201.85 230.85 216.02 220.73 226.14C218.7 228.16 218.7 230.19 216.68 232.21C212.63 238.28 220.73 232.21 218.7 207.92C216.68 193.76 208.58 179.59 202.51 169.47C188.34 153.28 182.27 151.25 172.15 177.57C170.13 181.61 172.15 177.57 170.13 183.64C166.08 201.85 166.08 214 172.15 232.21C176.2 244.36 184.3 254.48 190.37 266.62C182.27 272.69 174.18 290.91 168.1 299C166.08 301.03 162.03 305.07 164.06 309.12C164.06 294.95 162.03 286.86 157.98 276.74L149.89 264.59C145.84 256.5 143.82 254.48 137.75 248.4C129.65 240.31 131.67 238.28 115.48 238.28C113.46 248.4 109.41 260.55 107.39 270.67C105.36 288.88 109.41 294.95 113.46 307.1C119.53 321.27 131.67 339.48 143.82 345.55C141.79 347.58 141.79 347.58 139.77 351.62L131.67 371.86C129.65 379.96 125.6 386.03 123.58 394.13C123.58 375.91 115.48 361.74 105.36 351.62C93.22 341.5 81.07 327.34 64.88 327.34C60.84 343.53 58.81 365.79 64.88 384.01C66.91 390.08 70.95 394.13 72.98 398.17C79.05 408.29 93.22 420.44 103.34 428.53C105.36 430.56 115.48 434.61 109.41 434.61C107.39 452.82 99.29 466.99 99.29 485.2C99.29 458.89 75 442.7 54.76 434.61C46.67 430.56 38.57 426.51 30.48 428.53C26.43 438.65 30.48 456.87 32.5 464.97C42.62 495.32 66.91 511.52 93.22 525.68C91.19 543.9 91.19 558.07 91.19 576.28C99.29 572.23 70.95 545.92 64.88 543.9C50.72 535.8 28.45 525.68 14.28 531.76L12.26 535.8C10.24 551.99 12.26 525.68 12.26 539.85C12.26 547.95 16.31 560.09 20.36 568.19L32.5 584.38C52.74 606.64 89.17 616.76 91.19 620.81C95.24 624.86 95.24 634.98 95.24 643.07L99.29 663.31C97.27 653.19 79.05 643.07 68.93 639.02C48.69 632.95 40.6 632.95 14.28 632.95C14.28 647.12 18.33 655.22 26.43 667.36C34.52 683.55 48.69 693.67 66.91 699.74C83.1 703.79 91.19 703.79 109.41 707.84C109.41 719.98 115.48 736.17 119.53 748.32L121.55 750.34C111.43 726.05 50.72 728.08 32.5 734.15C32.5 748.32 38.57 754.39 46.67 764.51C46.67 764.51 48.69 766.53 50.72 766.53C50.72 768.56 50.72 768.56 50.72 768.56L77.03 786.77C93.22 792.84 121.55 798.92 137.75 792.84L149.89 815.11C151.91 819.16 153.94 821.18 155.96 827.25C162.03 835.35 160.01 833.32 162.03 833.32C160.01 825.23 131.67 819.16 117.51 819.16C97.27 819.16 85.12 827.25 66.91 831.3C68.93 845.47 66.91 841.42 75 847.49C103.34 879.87 135.72 881.9 176.2 875.83C192.39 873.8 182.27 867.73 198.46 889.99C200.49 894.04 210.61 906.18 214.65 908.21C204.54 896.06 174.18 900.11 162.03 904.16C149.89 906.18 139.77 912.26 127.63 918.33C123.58 922.38 121.55 920.35 119.53 926.42C123.58 938.57 141.79 946.66 153.94 952.74C157.98 954.76 153.94 952.74 160.01 954.76C166.08 956.78 170.13 958.81 178.22 958.81C196.44 958.81 210.61 956.78 226.8 952.74C230.85 950.71 232.87 948.69 234.89 948.69C236.92 946.66 236.92 946.66 240.97 944.64C245.01 942.62 242.99 944.64 247.04 942.62C251.09 948.69 259.18 954.76 263.23 960.83C267.28 964.88 269.3 964.88 273.35 968.93C277.4 972.97 279.42 975 281.44 972.97L277.4 970.95L275.37 970.95C275.37 970.95 275.37 970.95 273.35 970.95L267.28 968.93C247.04 966.9 196.44 985.12 188.34 1007.38C192.39 1015.48 188.34 1007.38 192.39 1011.43C192.39 1013.45 194.42 1015.48 194.42 1015.48C222.75 1035.72 263.23 1033.69 293.59 1017.5C301.68 1013.45 309.78 1003.33 319.9 1003.33C321.92 1007.38 348.24 1025.6 352.28 1023.57C325.97 1019.53 273.35 1053.93 269.3 1076.2C279.42 1090.36 259.18 1070.12 273.35 1080.24C275.37 1080.24 275.37 1082.27 277.4 1082.27C279.42 1084.29 283.47 1084.29 287.52 1086.32C350.26 1106.55 380.62 1057.98 398.83 1049.88C400.86 1049.88 400.86 1049.88 402.88 1051.91L435.26 1064.05C437.29 1064.05 433.24 1066.08 437.29 1064.05C417.05 1064.05 402.88 1072.15 390.74 1086.32C388.71 1086.32 388.71 1086.32 388.71 1086.32C388.71 1086.32 388.71 1086.32 388.71 1088.34L378.59 1096.44C376.57 1100.48 374.55 1102.51 370.5 1108.58C368.47 1112.63 362.4 1118.7 362.4 1124.77C362.4 1130.84 362.4 1132.87 368.47 1134.89C410.98 1142.99 437.29 1132.87 467.65 1104.53C471.7 1100.48 483.84 1084.29 485.86 1080.24C502.05 1082.27 514.2 1086.32 530.39 1090.36L540.51 1092.39L542.53 1092.39L546.58 1094.41L546.58 1094.41L558.73 1098.46C566.82 1100.48 572.89 1104.53 580.99 1106.55C580.99 1112.63 583.01 1108.58 576.94 1112.63L536.46 1136.91C522.29 1151.08 516.22 1151.08 514.2 1165.25C526.34 1173.34 532.41 1185.49 544.56 1173.34L615.4 1122.75C627.54 1134.89 672.07 1155.13 688.26 1179.42L700.4 1179.42C706.47 1171.32 720.64 1167.27 710.52 1155.13L704.45 1147.03L702.43 1147.03L698.38 1142.99C692.31 1136.91 688.26 1132.87 682.19 1128.82C674.09 1124.77 653.85 1110.6 645.75 1108.58L692.31 1090.36C698.38 1088.34 710.52 1086.32 718.62 1084.29C726.71 1082.27 734.81 1080.24 744.93 1080.24C748.98 1088.34 757.07 1098.46 765.17 1104.53L783.38 1120.72C819.81 1147.03 840.05 1134.89 868.39 1132.87C866.36 1104.53 825.89 1064.05 793.5 1064.05C809.69 1064.05 819.81 1051.91 833.98 1049.88C838.03 1057.98 850.17 1066.08 856.24 1070.12C860.29 1074.17 866.36 1076.2 870.41 1078.22C880.53 1084.29 892.68 1090.36 904.82 1090.36C912.92 1090.36 957.44 1088.34 959.47 1078.22C959.47 1076.2 961.49 1076.2 961.49 1076.2C959.47 1068.1 959.47 1070.12 953.39 1064.05L949.35 1057.98C929.11 1039.76 910.89 1019.53 876.48 1023.57C888.63 1019.53 906.84 1003.33 914.94 1003.33C923.03 1017.5 983.75 1043.81 1028.28 1019.53C1044.47 1011.43 1044.47 1005.36 1032.33 995.24C1010.06 981.07 983.75 962.85 955.42 970.95L947.32 975C949.35 975 953.39 970.95 957.44 968.93L985.78 942.62C987.8 946.66 993.87 948.69 999.94 950.71C1040.42 962.85 1062.69 962.85 1099.12 938.57C1105.19 934.52 1113.29 930.47 1105.19 922.38C1099.12 914.28 1086.97 910.23 1076.85 906.18L1066.73 904.16C1056.61 900.11 1048.52 898.09 1036.38 900.11C1030.3 902.14 1020.18 904.16 1016.14 908.21C1026.26 904.16 1036.38 875.83 1046.5 871.78C1050.54 877.85 1054.59 875.83 1062.69 875.83C1066.73 877.85 1076.85 879.87 1080.9 879.87C1097.09 881.9 1119.36 875.83 1133.52 867.73C1145.67 859.63 1161.86 847.49 1161.86 831.3C1145.67 825.23 1127.45 819.16 1109.24 819.16C1099.12 819.16 1091.02 821.18 1082.93 825.23C1076.85 827.25 1068.76 829.27 1066.73 835.35C1076.85 831.3 1080.9 811.06 1086.97 800.94C1089 796.89 1091.02 794.87 1095.07 792.84C1095.07 792.84 1097.09 792.84 1097.09 794.87L1103.17 794.87C1105.19 794.87 1111.26 794.87 1113.29 794.87C1129.48 792.84 1149.72 788.8 1161.86 782.72C1180.08 772.6 1196.27 754.39 1198.29 734.15C1176.03 726.05 1133.52 726.05 1113.29 744.27C1109.24 746.29 1109.24 748.32 1109.24 750.34C1109.24 744.27 1115.31 734.15 1115.31 728.08L1123.41 705.81C1155.79 705.81 1188.17 693.67 1204.36 665.34C1210.43 655.22 1216.51 647.12 1216.51 632.95C1188.17 632.95 1171.98 632.95 1149.72 643.07C1143.64 647.12 1139.6 649.14 1133.52 657.24C1131.5 661.29 1131.5 661.29 1131.5 665.34C1133.52 649.14 1137.57 634.98 1137.57 618.78C1141.62 616.76 1145.67 616.76 1151.74 614.74C1159.84 612.71 1159.84 610.69 1165.91 608.66C1198.29 592.47 1216.51 568.19 1216.51 529.73C1196.27 529.73 1180.08 535.8 1163.88 545.92C1159.84 545.92 1161.86 545.92 1159.84 547.95C1145.67 556.04 1147.69 562.11 1139.6 570.21C1139.6 556.04 1137.57 541.87 1137.57 525.68C1161.86 513.54 1192.22 495.32 1198.29 464.97C1200.31 450.8 1200.31 442.7 1200.31 426.51C1186.15 426.51 1182.1 430.56 1171.98 434.61C1159.84 440.68 1151.74 446.75 1143.64 456.87L1129.48 483.18C1129.48 460.92 1121.38 448.77 1119.36 432.58C1131.5 430.56 1151.74 404.25 1159.84 394.13C1167.93 379.96 1174 343.53 1161.86 327.34C1151.74 329.36 1147.69 333.41 1141.62 337.46C1125.43 349.6 1107.21 363.77 1107.21 388.06L1086.97 345.55C1097.09 339.48 1107.21 323.29 1111.26 313.17L1117.33 303.05C1121.38 292.93 1125.43 282.81 1123.41 266.62L1115.31 242.33C1113.29 234.24 1115.31 244.36 1113.29 236.26C1097.09 238.28 1086.97 252.45 1078.88 264.59C1068.76 280.79 1066.73 284.83 1066.73 311.15C1068.76 309.12 1064.71 303.05 1062.69 299C1058.64 290.91 1044.47 268.64 1038.4 264.59C1052.57 256.5 1068.76 211.97 1058.64 181.61C1054.59 169.47 1046.5 147.21 1032.33 163.4L1022.21 181.61C1020.18 181.61 1020.18 181.61 1020.18 181.61C1020.18 183.64 1020.18 183.64 1020.18 183.64L1018.16 187.68C1014.11 197.8 1003.99 224.12 1014.11 234.24C1010.06 226.14 985.78 199.83 977.68 195.78C995.9 175.54 999.94 128.99 973.63 98.63C969.59 90.54 973.63 92.56 963.51 90.54C955.42 90.54 953.39 104.7 951.37 108.75C949.35 116.85 945.3 120.89 943.27 128.99C941.25 143.16 943.27 169.47 951.37 173.52C949.35 167.45 941.25 163.4 933.15 161.37C935.18 167.45 935.18 167.45 939.23 171.49C941.25 173.52 941.25 175.54 943.27 175.54C947.32 181.61 943.27 171.49 945.3 179.59C945.3 185.66 951.37 193.76 955.42 191.73C953.39 191.73 947.32 185.66 935.18 183.64C912.92 179.59 892.68 189.71 876.48 201.85C866.36 209.95 872.44 203.88 868.39 211.97L874.46 218.04C914.94 254.48 963.51 218.04 977.68 214C981.73 220.07 991.85 230.19 997.92 236.26C1001.97 242.33 1014.11 256.5 1018.16 258.52C1012.09 252.45 995.9 244.36 987.8 242.33C973.63 240.31 959.47 244.36 947.32 248.4C937.2 252.45 933.15 254.48 925.06 258.52C927.08 274.71 925.06 262.57 929.11 268.64L933.15 274.71C959.47 292.93 973.63 296.98 1008.04 290.91C1018.16 290.91 1026.26 284.83 1034.35 282.81L1062.69 331.38C1058.64 319.24 1038.4 313.17 1026.26 311.15C1012.09 309.12 985.78 311.15 973.63 321.27C975.66 349.6 1028.28 377.94 1076.85 361.74C1078.88 373.89 1086.97 386.03 1091.02 398.17C1091.02 402.22 1095.07 404.25 1091.02 404.25C1086.97 398.17 1070.78 388.06 1060.66 386.03C1050.54 384.01 1022.21 386.03 1010.06 386.03C1010.06 400.2 1010.06 396.15 1014.11 406.27L1030.3 426.51C1042.45 436.63 1056.61 444.73 1072.81 446.75C1101.14 450.8 1103.17 440.68 1109.24 462.94L1117.33 501.4C1113.29 487.23 1101.14 477.11 1086.97 469.01C1068.76 460.92 1054.59 460.92 1032.33 460.92C1032.33 479.13 1040.42 493.3 1050.54 507.47L1058.64 515.56C1115.31 558.07 1121.38 505.44 1121.38 590.45C1115.31 556.04 1074.83 535.8 1042.45 535.8C1042.45 572.23 1056.61 598.55 1089 616.76L1109.24 626.88C1117.33 628.9 1113.29 624.86 1115.31 628.9C1119.36 632.95 1111.26 671.41 1109.24 673.43C1109.24 649.14 1086.97 626.88 1066.73 616.76C1058.64 614.74 1056.61 610.69 1050.54 610.69L1044.47 610.69C1044.47 608.66 1042.45 610.69 1042.45 610.69L1042.45 612.71L1040.42 614.74L1040.42 616.76C1034.35 651.17 1050.54 681.53 1076.85 701.77C1095.07 713.91 1099.12 709.86 1099.12 717.96C1095.07 722.01 1093.05 732.13 1089 740.22C1078.88 766.53 1084.95 760.46 1084.95 760.46C1084.95 748.32 1084.95 740.22 1080.9 730.1C1074.83 713.91 1046.5 683.55 1028.28 681.53L1024.23 687.6C1014.11 705.81 1020.18 738.2 1028.28 754.39L1046.5 778.68C1050.54 782.72 1062.69 794.87 1066.73 796.89C1060.66 802.96 1058.64 811.06 1052.57 819.16L1044.47 833.32C1052.57 819.16 1040.42 790.82 1036.38 782.72C1030.3 772.6 1022.21 760.46 1014.11 754.39C1012.09 752.36 1006.02 746.29 999.94 752.36L991.85 766.53C989.82 770.58 987.8 774.63 987.8 780.7C985.78 786.77 985.78 792.84 985.78 800.94C985.78 811.06 987.8 811.06 989.82 819.16L1018.16 871.78C1016.14 873.8 1006.02 885.95 1001.97 889.99C997.92 894.04 999.94 894.04 995.9 898.09C993.87 900.11 991.85 900.11 991.85 902.14L991.85 904.16L991.85 906.18C991.85 904.16 991.85 906.18 991.85 906.18C991.85 900.11 993.87 900.11 995.9 894.04C999.94 881.9 995.9 865.71 991.85 853.56L981.73 831.3C975.66 823.2 971.61 817.13 967.56 811.06C955.42 815.11 963.51 809.04 957.44 817.13C945.3 829.27 937.2 855.59 937.2 871.78C937.2 887.97 947.32 926.42 959.47 934.52C953.39 938.57 949.35 942.62 945.3 948.69C943.27 948.69 937.2 952.74 937.2 952.74C935.18 954.76 939.23 954.76 933.15 952.74L933.15 950.71L937.2 928.45C937.2 906.18 931.13 885.95 918.99 867.73C906.84 869.75 912.92 867.73 906.84 871.78L892.68 887.97C886.6 896.06 882.56 906.18 878.51 918.33C874.46 942.62 880.53 968.93 888.63 991.19L850.17 1015.48C862.32 1011.43 870.41 987.14 872.44 970.95C874.46 948.69 866.36 928.45 862.32 912.26C846.12 912.26 838.03 922.38 829.93 934.52L827.91 934.52L827.91 936.54L813.74 956.78C807.67 970.95 807.67 997.26 807.67 1015.48C807.67 1025.6 809.69 1025.6 809.69 1033.69C803.62 1033.69 771.24 1045.84 769.22 1049.88L785.41 1033.69C799.57 1017.5 803.62 966.9 797.55 950.71C795.53 950.71 797.55 948.69 791.48 948.69C789.45 948.69 787.43 950.71 785.41 950.71C783.38 950.71 781.36 950.71 779.33 952.74C765.17 960.83 751 970.95 742.9 985.12C730.76 1001.31 724.69 1027.62 724.69 1055.96C718.62 1057.98 704.45 1062.03 696.35 1064.05C692.31 1064.05 686.23 1066.08 682.19 1068.1C678.14 1068.1 672.07 1070.12 668.02 1072.15L615.4 1092.39C613.37 1092.39 593.13 1084.29 589.08 1082.27C570.87 1074.17 552.65 1068.1 532.41 1064.05C524.32 1062.03 512.17 1060 506.1 1055.96C506.1 1027.62 500.03 1001.31 487.89 985.12C475.74 966.9 455.5 948.69 433.24 946.66C425.14 968.93 427.17 1003.33 439.31 1025.6C443.36 1033.69 447.41 1039.76 455.5 1045.84C463.6 1051.91 457.53 1047.86 437.29 1039.76C415.03 1031.67 419.07 1033.69 423.12 1021.55C423.12 1017.5 423.12 1015.48 423.12 1011.43C423.12 977.02 421.1 954.76 396.81 930.47C388.71 920.35 384.67 914.28 370.5 914.28C370.5 914.28 370.5 916.3 368.47 916.3C360.38 930.47 356.33 952.74 358.35 970.95C358.35 979.05 370.5 1013.45 378.59 1013.45C372.52 1005.36 356.33 1001.31 346.21 993.21L346.21 993.21C344.19 991.19 342.16 997.26 342.16 987.14C344.19 983.09 344.19 983.09 346.21 979.05C352.28 954.76 356.33 926.42 344.19 902.14C340.14 892.02 334.07 885.95 328 875.83C321.92 869.75 321.92 869.75 313.83 867.73C301.68 877.85 297.64 898.09 293.59 912.26C289.54 928.45 293.59 954.76 301.68 962.85C299.66 954.76 283.47 946.66 277.4 942.62C275.37 938.57 273.35 938.57 271.33 934.52C281.44 924.4 291.56 894.04 291.56 871.78C291.56 851.54 287.52 841.42 279.42 825.23C279.42 825.23 279.42 825.23 277.4 825.23L269.3 811.06C257.16 813.08 255.13 821.18 249.06 829.27C236.92 849.51 230.85 871.78 234.89 894.04C236.92 908.21 238.94 904.16 238.94 904.16C236.92 902.14 212.63 871.78 210.61 869.75C218.7 865.71 228.82 849.51 232.87 839.39C240.97 821.18 249.06 800.94 240.97 778.68C238.94 770.58 238.94 762.48 234.89 756.41C222.75 742.25 218.7 752.36 214.65 756.41L194.42 782.72C186.32 794.87 182.27 813.08 184.3 835.35C186.32 833.32 186.32 835.35 184.3 833.32C180.25 819.16 168.1 809.04 164.06 794.87C172.15 792.84 176.2 786.77 180.25 780.7C182.27 778.68 184.3 776.65 186.32 776.65C188.34 772.6 192.39 768.56 194.42 764.51C204.54 752.36 210.61 736.17 210.61 717.96C210.61 695.69 204.54 689.62 204.54 683.55C202.51 681.53 202.51 681.53 202.51 681.53C192.39 681.53 192.39 681.53 186.32 685.57C182.27 689.62 182.27 691.65 178.22 693.67C172.15 697.72 166.08 703.79 162.03 709.86C155.96 715.93 151.91 722.01 149.89 730.1C145.84 738.2 145.84 748.32 145.84 758.44C143.82 752.36 141.79 746.29 139.77 738.2C135.72 730.1 131.67 722.01 131.67 713.91C133.7 711.89 133.7 713.91 135.72 711.89C151.91 703.79 166.08 691.65 176.2 679.5C186.32 663.31 196.44 630.93 188.34 610.69L180.25 610.69C174.18 610.69 168.1 616.76 162.03 618.78C153.94 622.83 149.89 624.86 141.79 630.93C133.7 639.02 121.55 657.24 119.53 673.43C119.53 655.22 113.46 645.1 111.43 628.9C135.72 622.83 162.03 608.66 174.18 588.43C176.2 584.38 176.2 586.4 178.22 580.33C186.32 564.14 186.32 558.07 186.32 535.8C162.03 535.8 137.75 545.92 121.55 564.14L111.43 584.38C109.41 588.43 109.41 594.5 109.41 584.38C109.41 570.21 109.41 554.02 109.41 539.85C117.51 535.8 133.7 533.78 139.77 531.76C141.79 529.73 145.84 529.73 147.86 527.71C176.2 517.59 196.44 495.32 196.44 460.92C176.2 460.92 157.98 462.94 139.77 471.04C115.48 483.18 109.41 513.54 113.46 495.32L119.53 471.04C121.55 462.94 123.58 456.87 123.58 448.77C149.89 448.77 172.15 444.73 188.34 434.61C202.51 426.51 208.58 416.39 216.68 404.25L218.7 390.08C218.7 388.06 218.7 388.06 218.7 388.06L216.68 388.06L214.65 386.03L204.54 386.03C200.49 386.03 194.42 386.03 190.37 386.03C178.22 386.03 172.15 386.03 164.06 388.06C151.91 394.13 137.75 402.22 133.7 412.34C139.77 408.29 141.79 394.13 143.82 386.03C145.84 379.96 147.86 371.86 151.91 367.82C155.96 361.74 145.84 365.79 155.96 363.77C153.94 361.74 151.91 365.79 186.32 365.79C214.65 365.79 253.11 351.62 257.16 319.24C230.85 309.12 192.39 307.1 170.13 327.34C166.08 329.36 166.08 331.38 166.08 333.41C170.13 329.36 174.18 321.27 176.2 315.19L178.22 313.17C180.25 311.15 180.25 309.12 182.27 307.1L186.32 299C188.34 296.98 188.34 294.95 190.37 292.93C192.39 288.88 196.44 280.79 196.44 284.83C206.56 284.83 202.51 286.86 212.63 288.88C232.87 294.95 253.11 296.98 273.35 288.88L285.49 280.79C297.64 272.69 303.71 270.67 303.71 258.52C279.42 242.33 245.01 236.26 220.73 252.45L220.73 250.43L220.73 250.43C220.73 248.4 222.75 248.4 222.75 248.4L245.01 222.09C247.04 218.04 249.06 214 255.13 214C259.18 222.09 293.59 232.21 307.76 234.24C325.97 236.26 338.12 230.19 352.28 222.09C386.69 201.85 301.68 181.61 275.37 191.73C291.56 187.68 309.78 161.37 321.92 149.23C346.21 169.47 378.59 195.78 421.1 171.49C419.07 163.4 413 161.37 404.91 155.3C366.45 126.97 358.35 147.21 330.02 147.21C334.07 139.11 334.07 137.09 344.19 135.06C336.09 124.94 346.21 122.92 352.28 114.82C366.45 96.61 362.4 54.1 352.28 43.99L350.26 46.01C350.26 46.01 350.26 46.01 348.24 46.01L336.09 62.2C309.78 96.61 330.02 128.99 328 145.18L319.9 147.21L319.9 147.21Z" />
		<path id="Layer" fill-rule="evenodd" class="shp0" d="M868.39 175.54C878.51 171.49 882.56 169.47 890.65 163.4L904.82 151.25C908.87 147.21 904.82 153.28 908.87 147.21C896.72 143.16 904.82 147.21 896.72 147.21C892.68 147.21 868.39 137.09 850.17 141.13C842.08 143.16 831.96 151.25 827.91 155.3C817.79 161.37 811.72 163.4 809.69 171.49C831.96 177.57 840.05 187.68 868.39 175.54ZM944.83 177.5C944.92 178 945.07 178.68 945.3 179.59C910.89 157.33 914.94 147.21 900.77 161.37C886.6 171.49 862.32 185.66 844.1 185.66C831.96 185.66 811.72 179.59 805.65 171.49C807.67 163.4 825.89 151.25 833.98 145.18C854.22 135.06 854.22 137.09 876.48 137.09C876.48 126.97 842.08 112.8 831.96 110.78C825.89 116.85 829.93 116.85 821.84 118.87C821.84 116.85 829.93 104.7 831.96 102.68C817.79 102.68 831.96 106.73 817.79 106.73C815.77 106.73 807.67 104.7 803.62 104.7C777.31 102.68 753.02 118.87 740.88 141.13C748.98 149.23 771.24 149.23 785.41 143.16C797.55 139.11 799.57 135.06 807.67 128.99C811.72 124.94 811.72 126.97 815.77 122.92C803.62 145.18 763.14 161.37 734.81 145.18C738.86 131.01 765.17 104.7 783.38 100.66C799.57 98.63 801.6 100.66 811.72 100.66C809.69 96.61 805.65 96.61 799.57 94.58C767.19 82.44 777.31 90.54 753.02 94.58C736.83 96.61 704.45 76.37 700.4 64.22C714.57 54.1 738.86 52.08 755.05 60.18C761.12 64.22 769.22 70.3 773.26 76.37C781.36 82.44 777.31 78.39 783.38 82.44C787.43 82.44 793.5 84.46 795.53 84.46C797.55 78.39 761.12 54.1 781.36 5.53C795.53 9.58 811.72 23.75 819.81 37.91C831.96 64.22 825.89 72.32 825.89 98.63C838.03 104.7 876.48 124.94 878.51 122.92C876.48 112.8 864.34 110.78 864.34 84.46C864.34 70.3 866.36 52.08 876.48 41.96C888.63 48.03 904.82 64.22 908.87 80.42C914.94 106.73 906.84 120.89 904.82 141.13C914.94 147.21 923.03 157.33 933.15 161.37C935.18 167.45 935.18 167.45 939.23 171.49C941.25 173.52 941.25 175.54 943.27 175.54C944.07 176.73 944.55 177.3 944.83 177.5ZM704.45 66.25C708.5 72.32 710.52 74.34 718.62 78.39C722.66 80.42 718.62 78.39 722.66 80.42C738.86 90.54 759.1 94.58 775.29 82.44L769.22 74.34C763.14 68.27 755.05 64.22 746.95 62.2C732.78 58.15 714.57 60.18 704.45 66.25ZM819.81 96.61C827.91 90.54 819.81 50.06 817.79 41.96C813.74 31.84 795.53 13.63 783.38 9.58C773.26 72.32 789.45 62.2 811.72 90.54C815.77 96.61 817.79 96.61 819.81 96.61ZM876.48 43.99C852.2 122.92 888.63 102.68 890.65 139.11C892.68 135.06 892.68 139.11 900.77 143.16C900.77 120.89 910.89 110.78 904.82 82.44C900.77 64.22 886.6 50.06 876.48 43.99Z" />
		<path id="Layer" fill-rule="evenodd" class="shp0" d="M319.9 147.21C323.95 139.11 325.97 147.21 323.95 137.09C323.95 124.94 315.85 116.85 321.92 84.46C323.95 68.27 342.16 46.01 354.31 41.96C364.43 60.18 370.5 90.54 360.38 106.73C358.35 110.78 352.28 116.85 352.28 122.92L402.88 98.63C402.88 88.51 398.83 60.18 410.98 37.91C417.05 25.77 435.26 7.55 449.43 5.53C453.48 19.7 455.5 35.89 451.46 50.06C445.38 80.42 439.31 72.32 433.24 86.49C465.62 80.42 467.65 48.03 504.08 56.13C514.2 58.15 524.32 60.18 530.39 64.22C528.37 68.27 528.37 68.27 524.32 70.3C518.25 82.44 491.93 94.58 477.77 94.58C467.65 94.58 457.53 86.49 449.43 86.49C445.38 86.49 429.19 94.58 425.14 96.61C427.17 106.73 423.12 96.61 447.41 100.66C467.65 106.73 491.93 133.04 493.96 145.18C459.55 159.35 429.19 143.16 410.98 124.94C394.79 106.73 406.93 100.66 352.28 133.04C350.26 133.04 348.24 133.04 346.21 135.06C342.16 139.11 344.19 137.09 344.19 139.11C352.28 143.16 362.4 128.99 392.76 143.16C402.88 149.23 423.12 163.4 425.14 173.52C406.93 183.64 384.67 189.71 362.4 179.59C352.28 175.54 346.21 171.49 338.12 165.42C328 159.35 323.95 151.25 313.83 157.33L321.92 149.23C346.21 169.47 378.59 195.78 421.1 171.49C419.07 163.4 413 161.37 404.91 155.3C366.45 126.97 358.35 147.21 330.02 147.21C334.07 139.11 334.07 137.09 344.19 135.06C336.09 124.94 346.21 122.92 352.28 114.82C366.45 96.61 362.4 54.1 352.28 43.99L350.26 46.01C350.26 46.01 350.26 46.01 348.24 46.01L336.09 62.2C309.78 96.61 330.02 128.99 328 145.18L319.9 147.21ZM524.32 64.22C516.22 64.22 500.03 56.13 481.82 62.2C473.72 64.22 457.53 74.34 455.5 84.46C467.65 88.51 479.79 92.56 493.96 86.49C508.13 82.44 514.2 74.34 524.32 70.3C524.32 70.3 524.32 66.25 524.32 64.22ZM406.93 98.63C410.98 96.61 415.03 94.58 417.05 92.56C421.1 90.54 421.1 88.51 425.14 84.46C427.17 82.44 431.22 78.39 433.24 76.37C453.48 58.15 453.48 19.7 445.38 9.58C400.86 27.79 408.95 74.34 406.93 98.63ZM489.91 143.16C485.86 131.01 479.79 126.97 471.7 120.89C469.67 116.85 471.7 118.87 467.65 116.85C465.62 114.82 459.55 110.78 457.53 108.75C435.26 98.63 419.07 106.73 413 106.73C398.83 106.73 413 102.68 398.83 102.68C402.88 114.82 423.12 133.04 433.24 137.09C447.41 147.21 471.7 151.25 489.91 143.16Z" />
		<path id="Layer" fill-rule="evenodd" class="shp0" d="M809.69 171.49C831.96 177.57 840.05 187.68 868.39 175.54C878.51 171.49 882.56 169.47 890.65 163.4L904.82 151.25C908.87 147.21 904.82 153.28 908.87 147.21C896.72 143.16 904.82 147.21 896.72 147.21C892.68 147.21 868.39 137.09 850.17 141.13C842.08 143.16 831.96 151.25 827.91 155.3C817.79 161.37 811.72 163.4 809.69 171.49Z" />
		<path id="Layer" fill-rule="evenodd" class="shp0" d="M876.48 43.99C852.2 122.92 888.63 102.68 890.65 139.11C892.68 135.06 892.68 139.11 900.77 143.16C900.77 120.89 910.89 110.78 904.82 82.44C900.77 64.22 886.6 50.06 876.48 43.99L876.48 43.99Z" />
		<path id="Layer" fill-rule="evenodd" class="shp0" d="M489.91 143.16C485.86 131.01 479.79 126.97 471.7 120.89C469.67 116.85 471.7 118.87 467.65 116.85C465.62 114.82 459.55 110.78 457.53 108.75C435.26 98.63 419.07 106.73 413 106.73C398.83 106.73 413 102.68 398.83 102.68C402.88 114.82 423.12 133.04 433.24 137.09C447.41 147.21 471.7 151.25 489.91 143.16L489.91 143.16Z" />
		<path id="Layer" fill-rule="evenodd" class="shp0" d="M406.93 98.63C410.98 96.61 415.03 94.58 417.05 92.56C421.1 90.54 421.1 88.51 425.14 84.46C427.17 82.44 431.22 78.39 433.24 76.37C453.48 58.15 453.48 19.7 445.38 9.58C400.86 27.79 408.95 74.34 406.93 98.63L406.93 98.63Z" />
		<path id="Layer" fill-rule="evenodd" class="shp0" d="M819.81 96.61C827.91 90.54 819.81 50.06 817.79 41.96C813.74 31.84 795.53 13.63 783.38 9.58C773.26 72.32 789.45 62.2 811.72 90.54C815.77 96.61 817.79 96.61 819.81 96.61L819.81 96.61Z" />
		<path id="Layer" fill-rule="evenodd" class="shp0" d="M718.62 78.39C722.66 80.42 718.62 78.39 722.66 80.42C738.86 90.54 759.1 94.58 775.29 82.44L769.22 74.34C763.14 68.27 755.05 64.22 746.95 62.2C732.78 58.15 714.57 60.18 704.45 66.25C708.5 72.32 710.52 74.34 718.62 78.39L718.62 78.39Z" />
		<path id="Layer" fill-rule="evenodd" class="shp0" d="M524.32 70.3C524.32 70.3 524.32 66.25 524.32 64.22C516.22 64.22 500.03 56.13 481.82 62.2C473.72 64.22 457.53 74.34 455.5 84.46C467.65 88.51 479.79 92.56 493.96 86.49C508.13 82.44 514.2 74.34 524.32 70.3Z" />
		<path id="Layer" fill-rule="evenodd" class="shp1" d="M819.13 102.87C801.74 96.38 790.16 102.16 773.66 106.04C769.87 106.93 754.1 118.61 751.42 123.33C750.91 124.23 735.28 143.29 738.55 144.09C752.98 147.63 748.42 150.32 769.42 150.32C791.27 150.32 825.77 132.32 831.06 110.39C834.18 97.47 820.6 106.89 817.89 102.94L817.79 106.73L819.13 102.87Z" />
		<path id="Layer" class="shp0" d="M272.78 649.97L266.93 655.91L259.81 655.91L258.54 612.48L265.92 612.48C276.31 637.84 290.18 650.52 307.55 650.52C314.96 650.52 320.78 648.7 325.01 645.05C329.26 641.43 331.38 636.63 331.38 630.72C331.38 621.83 324.26 615.12 310.01 610.51C295.59 606.11 285.72 602.58 280.39 599.98C275.1 597.34 270.64 593.26 267.05 587.76C263.46 582.23 261.66 575.83 261.66 568.53C261.66 558.46 265.86 549.92 274.23 542.91C282.59 535.91 293.54 532.4 307.03 532.4C318.35 532.4 329.18 535.12 339.51 540.54L344.7 535.53L351.99 535.53L352.77 576.52L345.39 576.52C340.53 563.47 335.32 554.23 329.76 548.85C324.23 543.43 317.66 540.74 310.01 540.74C303.96 540.74 298.98 542.45 295.04 545.89C291.11 549.34 289.14 553.65 289.14 558.78C289.14 562.8 290.59 566.45 293.42 569.78C296.29 573.08 303.87 576.7 316.21 580.66C328.25 584.63 336.85 587.96 341.97 590.68C347.13 593.37 351.33 597.31 354.57 602.44C357.84 607.53 359.46 613.67 359.46 620.79C359.46 631.88 354.86 641.06 345.68 648.32C336.47 655.59 324.43 659.21 309.49 659.21C296.9 659.21 284.65 656.14 272.78 649.97L272.78 649.97Z" />
		<path id="1" class="shp0" d="M394.58 658.34C389.95 658.34 385.98 656.72 382.68 653.45C379.35 650.21 377.7 646.33 377.7 641.78C377.7 637.32 379.35 633.44 382.63 630.11C385.9 626.81 389.89 625.16 394.58 625.16C399.13 625.16 403.04 626.84 406.34 630.17C409.64 633.5 411.29 637.38 411.29 641.78C411.29 646.27 409.64 650.15 406.31 653.42C402.95 656.69 399.07 658.34 394.58 658.34L394.58 658.34Z" />
		<path id="2" fill-rule="evenodd" class="shp0" d="M476.61 637.84C476.61 641.41 477.79 644.07 480.11 645.81C482.43 647.57 487.06 648.73 494.01 649.28L494.01 655.91L428.87 655.91L428.87 649.28C436.33 648.73 441.11 647.75 443.2 646.33C445.28 644.91 446.35 642.36 446.35 638.68L446.35 553.77C446.35 549.63 444.93 546.91 442.15 545.58C439.35 544.24 434.92 543.11 428.87 542.16L428.87 535.53L495.19 535.53C526.11 535.53 541.6 545.55 541.6 565.55C541.6 578 536.83 587.53 527.27 594.19C517.69 600.81 504.08 604.14 486.36 604.14L476.61 604.14L476.61 637.84ZM476.61 596.15L480.11 596.15C499.1 596.15 508.6 587.41 508.6 569.92C508.6 560.4 506.6 553.59 502.6 549.51C498.64 545.4 492.3 543.35 483.58 543.35L476.61 543.35L476.61 596.15Z" />
		<path id="3" class="shp0" d="M557.78 658.34C553.15 658.34 549.18 656.72 545.88 653.45C542.55 650.21 540.9 646.33 540.9 641.78C540.9 637.32 542.55 633.44 545.83 630.11C549.1 626.81 553.09 625.16 557.78 625.16C562.33 625.16 566.24 626.84 569.54 630.17C572.84 633.5 574.49 637.38 574.49 641.78C574.49 646.27 572.84 650.15 569.51 653.42C566.15 656.69 562.27 658.34 557.78 658.34L557.78 658.34Z" />
		<path id="4" fill-rule="evenodd" class="shp0" d="M688.79 672.27C692.73 676.99 697.25 679.36 702.34 679.36C707.7 679.36 712.79 678.72 717.6 677.51L717.6 684.92C706.92 689.09 695.51 691.17 683.41 691.17C673.74 691.17 665.89 688.25 659.84 682.43C653.79 676.61 650.37 668.76 649.56 658.86C632.34 657.01 618.47 650.35 607.96 638.89C597.48 627.45 592.24 613.5 592.24 597.02C592.24 577.8 598.41 562.19 610.74 550.21C623.04 538.22 638.62 532.23 657.38 532.23C675.88 532.23 691.34 538.05 703.82 549.72C716.3 561.35 722.52 576.41 722.52 594.91C722.52 608.92 719.02 621.23 712.01 631.76C704.98 642.3 695.13 649.89 682.39 654.55C682.74 661.61 684.88 667.52 688.79 672.27ZM634.13 554.9C628.78 564.45 626.08 578.17 626.08 596.1C626.08 613.55 628.78 627.07 634.13 636.6C639.52 646.12 647.25 650.87 657.38 650.87C667.6 650.87 675.39 646.1 680.66 636.51C685.96 626.93 688.59 613.24 688.59 595.43C688.59 577.94 685.93 564.45 680.63 554.9C675.3 545.34 667.57 540.57 657.38 540.57C647.25 540.57 639.52 545.34 634.13 554.9Z" />
		<path id="5" class="shp0" d="M757.2 658.34C752.57 658.34 748.6 656.72 745.3 653.45C741.97 650.21 740.32 646.33 740.32 641.78C740.32 637.32 741.97 633.44 745.25 630.11C748.52 626.81 752.51 625.16 757.2 625.16C761.75 625.16 765.66 626.84 768.96 630.17C772.26 633.5 773.91 637.38 773.91 641.78C773.91 646.27 772.26 650.15 768.93 653.42C765.57 656.69 761.69 658.34 757.2 658.34L757.2 658.34Z" />
		<path id="6" fill-rule="evenodd" class="shp0" d="M843.74 601.54L839.23 601.54L839.23 638.19C839.23 641.52 840.27 644.01 842.32 645.63C844.41 647.28 848.81 648.5 855.53 649.28L855.53 655.91L791.49 655.91L791.49 649.28C798.95 648.73 803.73 647.72 805.82 646.24C807.9 644.76 808.97 642.24 808.97 638.68L808.97 553.77C808.97 550.27 807.93 547.75 805.87 546.27C803.79 544.76 799.01 543.4 791.49 542.16L791.49 535.53L858.83 535.53C889.66 535.53 905.06 545.03 905.06 564.05C905.06 579.83 895.28 590.6 875.71 596.36L899.79 627.25C906.97 636.4 911.81 641.98 914.27 644.04C916.73 646.07 918.7 647.34 920.15 647.8C921.62 648.3 924.78 648.79 929.58 649.28L929.58 655.91L883.35 655.91C870.73 636.34 857.52 618.21 843.74 601.54ZM839.23 593.72L845.68 593.72C863.17 593.72 871.88 584.63 871.88 566.42C871.88 551.05 863.23 543.35 845.86 543.35L839.23 543.35L839.23 593.72Z" />
		<path id="7" class="shp0" d="M952.63 658.34C948 658.34 944.03 656.72 940.73 653.45C937.4 650.21 935.75 646.33 935.75 641.78C935.75 637.32 937.4 633.44 940.68 630.11C943.95 626.81 947.94 625.16 952.63 625.16C957.18 625.16 961.09 626.84 964.39 630.17C967.69 633.5 969.34 637.38 969.34 641.78C969.34 646.27 967.69 650.15 964.36 653.42C961 656.69 957.12 658.34 952.63 658.34L952.63 658.34Z" />
	</g>
</svg>