<?xml version="1.0" encoding="UTF-8"?>
<!DOCTYPE svg PUBLIC "-//W3C//DTD SVG 1.1//EN" "http://www.w3.org/Graphics/SVG/1.1/DTD/svg11.dtd">
<!-- Creator: CorelDRAW 2019 (64-Bit) -->
<svg xmlns="http://www.w3.org/2000/svg" xml:space="preserve" width="42.3332mm" height="42.3332mm" version="1.1" style="shape-rendering:geometricPrecision; text-rendering:geometricPrecision; image-rendering:optimizeQuality; fill-rule:evenodd; clip-rule:evenodd"
viewBox="0 0 4233.32 4233.32"
 xmlns:xlink="http://www.w3.org/1999/xlink"
 xmlns:xodm="http://www.corel.com/coreldraw/odm/2003">
 <defs>
  <style type="text/css">
   <![CDATA[
    .fil1 {fill:#F8F8F8}
    .fil0 {fill:#F8F8F8;fill-rule:nonzero}
   ]]>
  </style>
 </defs>
 <g id="Слой_x0020_1">
  <metadata id="CorelCorpID_0Corel-Layer"/>
  <path class="fil0" d="M2110.61 2152.05c-4.75,3.96 -10.88,7.12 -18.39,9.49 -7.52,2.37 -16.02,3.56 -25.51,3.56 -12.65,0 -23.23,-1.58 -31.73,-4.74 -8.51,-3.17 -14.14,-8.7 -16.91,-16.61 -12.65,-36.78 -23.43,-67.33 -32.33,-91.65 -8.89,-24.32 -15.91,-45.38 -21.05,-63.17l-2.38 0c-1.18,24.52 -2.17,46.96 -2.96,67.32 -0.79,20.37 -1.49,40.24 -2.08,59.62 -0.59,19.37 -1.28,38.95 -2.07,58.72 -0.8,19.77 -1.78,41.52 -2.97,65.25 -4.35,1.58 -10.18,3.07 -17.5,4.45 -7.31,1.38 -14.93,2.08 -22.84,2.08 -15.42,0 -27.48,-2.67 -36.18,-8.01 -8.7,-5.34 -13.05,-14.54 -13.05,-27.58 0,-7.52 0.3,-17.9 0.89,-31.15 0.59,-13.24 1.38,-28.47 2.37,-45.67 0.99,-17.2 2.18,-35.69 3.56,-55.46 1.39,-19.77 2.77,-39.84 4.15,-60.21 1.39,-20.36 2.67,-40.53 3.86,-60.5 1.19,-19.97 2.37,-38.46 3.56,-55.46 3.16,-4.35 9.59,-9.2 19.28,-14.54 9.69,-5.33 23.23,-8 40.63,-8 18.59,0 33.22,2.96 43.89,8.89 10.68,5.94 18.79,15.62 24.32,29.07 4.35,10.68 8.9,22.64 13.65,35.89 4.74,13.24 9.49,26.79 14.23,40.63 4.75,13.84 9.39,27.58 13.94,41.22 4.55,13.65 8.8,26.2 12.76,37.67l2.96 0c11.07,-34.8 22.15,-68.51 33.22,-101.14 11.07,-32.62 20.76,-60 29.06,-82.15 5.54,-2.77 12.56,-5.14 21.06,-7.12 8.5,-1.98 17.9,-2.96 28.18,-2.96 17.79,0 32.03,2.57 42.71,7.71 10.67,5.14 17,12.65 18.98,22.54 1.58,7.91 3.36,19.97 5.34,36.18 1.97,16.21 3.95,34.8 5.93,55.76 1.97,20.96 3.95,43 5.93,66.14 1.98,23.13 3.76,45.47 5.34,67.03 1.58,21.55 2.96,41.22 4.15,59.02 1.19,17.79 1.98,31.63 2.37,41.52 -5.93,3.56 -12.26,6.23 -18.98,8.01 -6.72,1.78 -15.22,2.67 -25.51,2.67 -13.05,0 -24.22,-2.38 -33.51,-7.12 -9.29,-4.75 -14.33,-14.04 -15.13,-27.88 -2.76,-45.87 -4.64,-87.89 -5.63,-126.05 -0.99,-38.16 -2.08,-69.5 -3.26,-94.02l-2.97 0c-4.74,16.61 -11.57,37.57 -20.46,62.88 -8.9,25.31 -19.87,57.93 -32.92,97.87zm297.17 -15.42c5.54,16.61 15.22,28.37 29.06,35.29 13.85,6.92 29.86,10.38 48.05,10.38 16.61,0 32.23,-2.27 46.86,-6.82 14.63,-4.55 26.5,-9.59 35.59,-15.12 5.93,3.95 10.88,9.09 14.83,15.42 3.96,6.33 5.93,13.25 5.93,20.76 0,9.09 -2.76,17 -8.3,23.73 -5.54,6.72 -13.15,12.35 -22.84,16.9 -9.69,4.55 -21.15,7.91 -34.4,10.09 -13.25,2.17 -27.78,3.26 -43.6,3.26 -23.33,0 -44.88,-3.26 -64.66,-9.79 -19.77,-6.52 -36.77,-16.21 -51.01,-29.07 -14.23,-12.85 -25.41,-28.96 -33.51,-48.34 -8.11,-19.38 -12.16,-42.11 -12.16,-68.21 0,-25.31 4.05,-47.26 12.16,-65.84 8.1,-18.59 18.98,-34.01 32.62,-46.27 13.65,-12.26 29.27,-21.26 46.86,-26.99 17.6,-5.74 35.69,-8.6 54.28,-8.6 20.17,0 38.65,3.06 55.46,9.19 16.81,6.13 31.24,14.73 43.3,25.8 12.06,11.08 21.45,24.32 28.18,39.75 6.72,15.42 10.08,32.23 10.08,50.42 0,12.65 -3.36,22.14 -10.08,28.47 -6.73,6.33 -16.22,10.48 -28.48,12.46l-154.22 23.13zm56.35 -122.19c-17,0 -31.14,5.24 -42.41,15.71 -11.27,10.48 -17.89,25.61 -19.87,45.38l113.29 -18.39c-0.79,-10.28 -5.34,-19.97 -13.64,-29.06 -8.3,-9.1 -20.76,-13.64 -37.37,-13.64zm279.38 226.59c-3.95,1.18 -9.49,2.27 -16.61,3.26 -7.11,0.99 -15.02,1.48 -23.72,1.48 -17.8,0 -30.65,-2.86 -38.56,-8.6 -7.91,-5.73 -11.86,-16.9 -11.86,-33.51l0 -180.92c0,-11.07 2.77,-20.56 8.3,-28.47 5.54,-7.91 13.25,-14.83 23.14,-20.76 13.05,-7.91 28.76,-14.14 47.15,-18.69 18.39,-4.55 37.67,-6.82 57.84,-6.82 41.12,0 61.69,13.84 61.69,41.52 0,6.73 -0.99,12.85 -2.97,18.39 -1.98,5.54 -4.15,10.28 -6.52,14.24 -9.1,-1.98 -20.17,-2.97 -33.22,-2.97 -11.47,0 -22.94,1.39 -34.41,4.15 -11.46,2.77 -21.55,6.53 -30.25,11.27l0 206.43zm295.4 -221.85c-21.35,0 -39.54,6.82 -54.57,20.47 -15.03,13.64 -22.54,33.71 -22.54,60.2 0,26.5 7.22,46.27 21.65,59.32 14.43,13.05 32.72,19.57 54.87,19.57 12.65,0 23.82,-1.68 33.51,-5.04 9.69,-3.36 17.9,-6.82 24.62,-10.38 6.72,5.14 11.96,10.58 15.72,16.31 3.75,5.74 5.63,12.76 5.63,21.06 0,15.03 -7.91,27.09 -23.72,36.18 -15.82,9.1 -37.77,13.65 -65.85,13.65 -23.72,0 -45.37,-3.17 -64.95,-9.49 -19.57,-6.33 -36.28,-15.82 -50.12,-28.48 -13.84,-12.65 -24.52,-28.37 -32.03,-47.15 -7.52,-18.79 -11.27,-40.63 -11.27,-65.55 0,-25.7 4.15,-48.04 12.45,-67.03 8.31,-18.98 19.58,-34.8 33.82,-47.45 14.23,-12.65 30.84,-22.14 49.82,-28.47 18.98,-6.33 38.95,-9.49 59.91,-9.49 27.29,0 48.74,4.94 64.36,14.83 15.62,9.88 23.43,22.34 23.43,37.37 0,7.11 -1.68,13.64 -5.04,19.57 -3.36,5.93 -7.42,11.07 -12.16,15.42 -7.12,-3.95 -15.52,-7.51 -25.21,-10.67 -9.69,-3.17 -20.47,-4.75 -32.33,-4.75zm408.1 163.12c0,18.59 -8.11,32.83 -24.32,42.71 -12.66,7.91 -28.28,14.14 -46.86,18.69 -18.59,4.54 -39.15,6.82 -61.69,6.82 -21.36,0 -40.73,-2.28 -58.13,-6.82 -17.4,-4.55 -32.33,-11.77 -44.79,-21.65 -12.45,-9.89 -22.14,-22.35 -29.06,-37.37 -6.92,-15.03 -10.38,-33.22 -10.38,-54.58l0 -172.61c4.35,-1.18 10.08,-2.37 17.2,-3.56 7.12,-1.18 15.03,-1.78 23.73,-1.78 17.79,0 30.54,2.97 38.26,8.9 7.71,5.93 11.56,17.2 11.56,33.81l0 134.65c0,17.8 4.55,30.55 13.65,38.26 9.09,7.71 21.94,11.57 38.55,11.57 10.28,0 18.88,-0.89 25.8,-2.67 6.92,-1.78 12.16,-3.66 15.72,-5.64l0 -213.54c3.96,-1.18 9.49,-2.37 16.61,-3.56 7.12,-1.18 15.03,-1.78 23.73,-1.78 17.79,0 30.65,2.97 38.55,8.9 7.91,5.93 11.87,17.2 11.87,33.81l0 187.44zm157.19 58.73c-3.95,1.18 -9.49,2.27 -16.61,3.26 -7.11,0.99 -15.02,1.48 -23.72,1.48 -17.8,0 -30.65,-2.86 -38.56,-8.6 -7.91,-5.73 -11.86,-16.9 -11.86,-33.51l0 -180.92c0,-11.07 2.77,-20.56 8.3,-28.47 5.54,-7.91 13.25,-14.83 23.14,-20.76 13.05,-7.91 28.76,-14.14 47.15,-18.69 18.39,-4.55 37.67,-6.82 57.84,-6.82 41.12,0 61.69,13.84 61.69,41.52 0,6.73 -0.99,12.85 -2.97,18.39 -1.98,5.54 -4.15,10.28 -6.52,14.24 -9.1,-1.98 -20.17,-2.97 -33.22,-2.97 -11.47,0 -22.94,1.39 -34.41,4.15 -11.46,2.77 -21.55,6.53 -30.25,11.27l0 206.43zm206.42 -70.59c-9.09,-19.77 -19.47,-45.58 -31.14,-77.41 -11.67,-31.83 -23.83,-73.06 -36.48,-123.68 4.75,-5.14 11.37,-9.58 19.87,-13.34 8.5,-3.76 17.7,-5.64 27.58,-5.64 12.66,0 22.94,2.67 30.85,8.01 7.91,5.34 14.04,15.13 18.39,29.36 8.7,28.87 17.49,57.34 26.39,85.42 8.9,28.08 17.9,56.35 26.99,84.82l2.37 0c4.75,-13.44 9.69,-28.17 14.83,-44.19 5.14,-16.01 10.09,-32.62 14.83,-49.82 4.75,-17.21 9.2,-34.61 13.35,-52.2 4.15,-17.6 7.81,-34.7 10.97,-51.31 12.26,-6.73 25.11,-10.09 38.56,-10.09 12.65,0 23.53,2.77 32.62,8.31 9.1,5.53 13.65,14.63 13.65,27.28 0,14.24 -2.48,32.33 -7.42,54.28 -4.94,21.95 -11.47,44.88 -19.57,68.81 -8.11,23.92 -17.2,47.65 -27.29,71.18 -10.08,23.53 -20.46,44.19 -31.14,61.98 -22.15,37.57 -42.12,65.55 -59.91,83.94 -17.8,18.38 -35.79,27.58 -53.98,27.58 -14.63,0 -26.69,-4.45 -36.18,-13.35 -9.49,-8.89 -15.23,-20.26 -17.2,-34.1 12.65,-11.08 25.8,-24.03 39.44,-38.86 13.64,-14.83 25.21,-29.75 34.7,-44.78 -6.72,-1.98 -13.74,-6.43 -21.06,-13.35 -7.31,-6.92 -15.32,-19.87 -24.02,-38.85z"/>
  <g id="_2858385491344">
   <path class="fil1" d="M503.52 1545.57c-10.81,-2.16 -8.65,0 -15.14,4.33 -6.49,6.49 -23.8,15.15 -28.13,23.8 8.66,-6.49 10.82,-30.29 6.49,-47.6 -2.16,-17.31 -8.65,-30.29 -17.31,-41.11 -10.82,2.16 -10.82,0 -15.14,8.66 -2.17,2.16 -6.49,8.65 -8.66,10.81 -15.14,25.97 -8.65,84.39 6.49,93.04 -12.98,6.49 -23.8,21.64 -34.61,32.45 -2.17,2.17 -2.17,4.33 -4.33,6.49 -4.33,6.5 4.33,0 2.16,-25.96 -2.16,-15.14 -10.82,-30.29 -17.31,-41.11 -15.14,-17.31 -21.63,-19.47 -32.45,8.66 -2.17,4.32 0,0 -2.17,6.49 -4.32,19.47 -4.32,32.45 2.17,51.92 4.33,12.99 12.98,23.8 19.47,36.79 -8.65,6.49 -17.31,25.96 -23.8,34.61 -2.16,2.17 -6.49,6.5 -4.33,10.82 0,-15.14 -2.16,-23.8 -6.49,-34.62l-8.65 -12.98c-4.33,-8.65 -6.49,-10.82 -12.98,-17.31 -8.66,-8.65 -6.49,-10.81 -23.8,-10.81 -2.17,10.81 -6.49,23.8 -8.66,34.61 -2.16,19.48 2.17,25.97 6.49,38.95 6.49,15.14 19.48,34.62 32.46,41.11 -2.17,2.16 -2.17,2.16 -4.33,6.49l-8.65 21.63c-2.17,8.66 -6.49,15.15 -8.66,23.8 0,-19.47 -8.65,-34.61 -19.47,-45.43 -12.98,-10.82 -25.96,-25.96 -43.27,-25.96 -4.33,17.3 -6.49,41.1 0,60.58 2.16,6.49 6.49,10.81 8.65,15.14 6.49,10.82 21.64,23.8 32.46,32.46 2.16,2.16 12.98,6.49 6.49,6.49 -2.17,19.47 -10.82,34.62 -10.82,54.09 0,-28.13 -25.97,-45.44 -47.6,-54.09 -8.66,-4.33 -17.31,-8.66 -25.97,-6.49 -4.32,10.81 0,30.29 2.17,38.94 10.82,32.46 36.78,49.76 64.91,64.91 -2.17,19.47 -2.17,34.62 -2.17,54.09 8.66,-4.33 -21.63,-32.45 -28.12,-34.62 -15.15,-8.65 -38.95,-19.47 -54.09,-12.98l-2.17 4.33c-2.16,17.31 0,-10.82 0,4.33 0,8.65 4.33,21.63 8.66,30.29l12.98 17.31c21.63,23.8 60.58,34.61 62.74,38.94 4.33,4.33 4.33,15.15 4.33,23.8l4.33 21.64c-2.17,-10.82 -21.64,-21.64 -32.46,-25.97 -21.63,-6.49 -30.29,-6.49 -58.41,-6.49 0,15.15 4.32,23.8 12.98,36.78 8.65,17.31 23.8,28.13 43.27,34.62 17.31,4.33 25.96,4.33 45.44,8.66 0,12.98 6.49,30.29 10.81,43.27l2.17 2.16c-10.82,-25.96 -75.73,-23.8 -95.2,-17.31 0,15.15 6.49,21.64 15.14,32.46 0,0 2.17,2.16 4.33,2.16 0,2.17 0,2.17 0,2.17l28.13 19.47c17.31,6.49 47.6,12.98 64.91,6.49l12.98 23.8c2.16,4.33 4.33,6.49 6.49,12.98 6.49,8.65 4.33,6.49 6.49,6.49 -2.16,-8.65 -32.45,-15.14 -47.6,-15.14 -21.64,0 -34.62,8.65 -54.09,12.98 2.16,15.14 0,10.82 8.65,17.31 30.3,34.61 64.91,36.78 108.19,30.29 17.3,-2.17 6.49,-8.66 23.8,15.14 2.16,4.33 12.98,17.31 17.3,19.48 -10.81,-12.99 -43.27,-8.66 -56.25,-4.33 -12.98,2.16 -23.8,8.65 -36.78,15.14 -4.33,4.33 -6.49,2.17 -8.66,8.66 4.33,12.98 23.8,21.63 36.79,28.12 4.32,2.17 0,0 6.49,2.17 6.49,2.16 10.81,4.33 19.47,4.33 19.47,0 34.62,-2.17 51.93,-6.5 4.32,-2.16 6.49,-4.32 8.65,-4.32 2.16,-2.17 2.16,-2.17 6.49,-4.33 4.33,-2.16 2.17,0 6.49,-2.16 4.33,6.49 12.98,12.98 17.31,19.47 4.33,4.33 6.49,4.33 10.82,8.65 4.33,4.33 6.49,6.49 8.65,4.33l-4.32 -2.16c0,0 -2.17,0 -2.17,0 0,0 0,0 -2.16,0 0,0 -6.49,-2.17 -6.49,-2.17 -21.64,-2.16 -75.73,17.31 -84.38,41.11 4.32,8.66 0,0 4.32,4.33 0,2.16 2.17,4.33 2.17,4.33 30.29,21.63 73.56,19.47 106.02,2.16 8.65,-4.33 17.31,-15.14 28.12,-15.14 2.17,4.32 30.29,23.8 34.62,21.63 -28.13,-4.33 -84.38,32.46 -88.71,56.26 10.82,15.14 -10.82,-6.5 4.33,4.32 2.16,0 2.16,2.17 4.33,2.17 2.16,2.16 6.49,2.16 10.82,4.32 67.07,21.64 99.52,-30.29 118.99,-38.94 2.17,0 2.17,0 4.33,2.16l34.62 12.98c2.16,0 -2.16,2.17 2.16,0 -21.63,0 -36.78,8.66 -49.76,23.8 -2.16,0 -2.16,0 -2.16,0 0,0 0,0 0,2.17l-10.82 8.65c-2.17,4.33 -4.33,6.49 -8.66,12.98 -2.16,4.33 -8.65,10.82 -8.65,17.31 0,6.49 0,8.66 6.49,10.82 45.44,8.66 73.56,-2.16 106.02,-32.45 4.32,-4.33 17.31,-21.64 19.47,-25.97 17.31,2.17 30.29,6.49 47.6,10.82l10.82 2.16c0,0 2.16,0 2.16,0l4.33 2.17c0,0 0,0 0,0l12.98 4.33c8.66,2.16 15.15,6.49 23.8,8.65 0,6.49 2.16,2.16 -4.33,6.49l-43.27 25.96c-15.14,15.15 -21.64,15.15 -23.8,30.3 12.98,8.65 19.47,21.63 32.46,8.65l75.72 -54.09c12.98,12.98 60.58,34.62 77.89,60.58l12.98 0c6.5,-8.65 21.64,-12.98 10.82,-25.96l-6.49 -8.66c0,0 -2.16,0 -2.16,0l-4.33 -4.32c-6.49,-6.5 -10.82,-10.82 -17.31,-15.15 -8.65,-4.33 -30.29,-19.47 -38.94,-21.64l49.76 -19.47c6.49,-2.16 19.47,-4.33 28.13,-6.49 8.65,-2.16 17.31,-4.33 28.12,-4.33 4.33,8.66 12.99,19.48 21.64,25.97l19.47 17.31c38.95,28.12 60.58,15.14 90.88,12.98 -2.17,-30.29 -45.44,-73.57 -80.06,-73.57 17.31,0 28.13,-12.98 43.27,-15.14 4.33,8.65 17.31,17.31 23.8,21.63 4.33,4.33 10.82,6.5 15.15,8.66 10.82,6.49 23.8,12.98 36.78,12.98 8.65,0 56.25,-2.16 58.42,-12.98 0,-2.16 2.16,-2.16 2.16,-2.16 -2.16,-8.66 -2.16,-6.5 -8.65,-12.99l-4.33 -6.49c-21.64,-19.47 -41.11,-41.11 -77.89,-36.78 12.98,-4.33 32.45,-21.63 41.11,-21.63 8.65,15.14 73.56,43.27 121.16,17.3 17.31,-8.65 17.31,-15.14 4.33,-25.96 -23.8,-15.14 -51.93,-34.62 -82.22,-25.96l-8.65 4.32c2.16,0 6.49,-4.32 10.81,-6.49l30.3 -28.12c2.16,4.32 8.65,6.49 15.14,8.65 43.27,12.98 67.07,12.98 106.02,-12.98 6.49,-4.33 15.14,-8.66 6.49,-17.31 -6.49,-8.65 -19.47,-12.98 -30.29,-17.31l-10.82 -2.16c-10.82,-4.33 -19.47,-6.49 -32.45,-4.33 -6.49,2.16 -17.31,4.33 -21.64,8.66 10.82,-4.33 21.64,-34.62 32.45,-38.95 4.33,6.49 8.66,4.33 17.31,4.33 4.33,2.16 15.15,4.32 19.48,4.32 17.3,2.17 41.1,-4.32 56.25,-12.98 12.98,-8.65 30.29,-21.63 30.29,-38.94 -17.31,-6.49 -36.78,-12.98 -56.25,-12.98 -10.82,0 -19.48,2.16 -28.13,6.49 -6.49,2.16 -15.15,4.32 -17.31,10.81 10.82,-4.32 15.15,-25.96 21.64,-36.78 2.16,-4.32 4.32,-6.49 8.65,-8.65 0,0 2.16,0 2.16,2.16l6.5 0c2.16,0 8.65,0 10.81,0 17.31,-2.16 38.95,-6.49 51.93,-12.98 19.47,-10.82 36.78,-30.29 38.95,-51.93 -23.8,-8.65 -69.24,-8.65 -90.88,10.82 -4.32,2.17 -4.32,4.33 -4.32,6.49 0,-6.49 6.49,-17.31 6.49,-23.8l8.65 -23.8c34.62,0 69.24,-12.98 86.55,-43.27 6.49,-10.82 12.98,-19.47 12.98,-34.62 -30.29,0 -47.6,0 -71.4,10.82 -6.49,4.33 -10.82,6.49 -17.31,15.15 -2.16,4.32 -2.16,4.32 -2.16,8.65 2.16,-17.31 6.49,-32.45 6.49,-49.76 4.32,-2.17 8.65,-2.17 15.14,-4.33 8.66,-2.16 8.66,-4.33 15.15,-6.49 34.62,-17.31 54.09,-43.27 54.09,-84.38 -21.64,0 -38.95,6.49 -56.26,17.31 -4.32,0 -2.16,0 -4.32,2.16 -15.15,8.65 -12.98,15.15 -21.64,23.8 0,-15.15 -2.16,-30.29 -2.16,-47.6 25.96,-12.98 58.41,-32.45 64.91,-64.91 2.16,-15.14 2.16,-23.8 2.16,-41.11 -15.15,0 -19.47,4.33 -30.29,8.66 -12.98,6.49 -21.64,12.98 -30.29,23.8l-15.15 28.12c0,-23.8 -8.65,-36.78 -10.82,-54.09 12.99,-2.16 34.62,-30.29 43.28,-41.11 8.65,-15.14 15.14,-54.09 2.16,-71.39 -10.82,2.16 -15.14,6.49 -21.64,10.81 -17.3,12.98 -36.78,28.13 -36.78,54.09l-21.63 -45.43c10.81,-6.49 21.63,-23.8 25.96,-34.62l6.49 -10.82c4.33,-10.82 8.66,-21.63 6.49,-38.94l-8.65 -25.97c-2.17,-8.65 0,2.17 -2.17,-6.49 -17.31,2.17 -28.12,17.31 -36.78,30.29 -10.82,17.31 -12.98,21.64 -12.98,49.77 2.16,-2.17 -2.16,-8.66 -4.33,-12.99 -4.32,-8.65 -19.47,-32.45 -25.96,-36.78 15.14,-8.65 32.45,-56.25 21.64,-88.71 -4.33,-12.98 -12.99,-36.78 -28.13,-19.47l-10.82 19.47c-2.16,0 -2.16,0 -2.16,0 0,2.17 0,2.17 0,2.17l-2.17 4.33c-4.32,10.81 -15.14,38.94 -4.32,49.76 -4.33,-8.66 -30.29,-36.78 -38.95,-41.11 19.47,-21.64 23.8,-71.4 -4.33,-103.85 -4.32,-8.66 0,-6.5 -10.81,-8.66 -8.66,0 -10.82,15.15 -12.99,19.47 -2.16,8.66 -6.49,12.99 -8.65,21.64 -2.16,15.15 0,43.27 8.65,47.6 -2.16,-6.49 -10.81,-10.82 -19.47,-12.98 2.16,6.49 2.16,6.49 6.49,10.82 2.17,2.16 2.17,4.32 4.33,4.32 4.33,6.49 0,-4.32 2.16,4.33 0,6.49 6.49,15.15 10.82,12.98 -2.16,0 -8.65,-6.49 -21.64,-8.65 -23.8,-4.33 -45.43,6.49 -62.74,19.47 -10.82,8.65 -4.33,2.16 -8.65,10.82l6.49 6.49c43.27,38.94 95.2,0 110.34,-4.33 4.33,6.49 15.15,17.31 21.64,23.8 4.32,6.49 17.31,21.64 21.63,23.8 -6.49,-6.49 -23.8,-15.14 -32.45,-17.31 -15.15,-2.16 -30.29,2.17 -43.27,6.49 -10.82,4.33 -15.15,6.49 -23.8,10.82 2.16,17.31 0,4.33 4.32,10.82 0,0 4.33,6.49 4.33,6.49 28.13,19.47 43.27,23.8 80.06,17.31 10.81,0 19.47,-6.49 28.12,-8.65l30.29 51.92c-4.32,-12.98 -25.96,-19.47 -38.94,-21.63 -15.15,-2.17 -43.27,0 -56.26,10.81 2.17,30.29 58.42,60.59 110.35,43.28 2.16,12.98 10.82,25.96 15.14,38.94 0,4.33 4.33,6.49 0,6.49 -4.32,-6.49 -21.63,-17.31 -32.45,-19.47 -10.82,-2.16 -41.11,0 -54.09,0 0,15.15 0,10.82 4.33,21.64l17.31 21.63c12.98,10.82 28.12,19.48 45.43,21.64 30.29,4.33 32.46,-6.49 38.95,17.31l8.65 41.11c-4.33,-15.15 -17.31,-25.97 -32.45,-34.62 -19.48,-8.66 -34.62,-8.66 -58.42,-8.66 0,19.48 8.65,34.62 19.47,49.77l8.66 8.65c60.58,45.44 67.07,-10.82 67.07,80.06 -6.49,-36.79 -49.77,-58.42 -84.38,-58.42 0,38.94 15.14,67.07 49.76,86.54l21.64 10.82c8.65,2.17 4.32,-2.16 6.49,2.17 4.32,4.32 -4.33,45.43 -6.49,47.59 0,-25.96 -23.8,-49.76 -45.44,-60.58 -8.65,-2.16 -10.82,-6.49 -17.31,-6.49l-6.49 0c0,-2.16 -2.16,0 -2.16,0 0,0 0,2.17 0,2.17 0,0 -2.17,2.16 -2.17,2.16 0,0 0,2.16 0,2.16 -6.49,36.78 10.82,69.24 38.95,90.88 19.47,12.98 23.8,8.65 23.8,17.3 -4.33,4.33 -6.49,15.15 -10.82,23.8 -10.82,28.13 -4.33,21.64 -4.33,21.64 0,-12.98 0,-21.64 -4.32,-32.45 -6.5,-17.31 -36.79,-49.77 -56.26,-51.93l-4.33 6.49c-10.81,19.47 -4.32,54.09 4.33,71.4l19.47 25.96c4.33,4.33 17.31,17.31 21.64,19.48 -6.49,6.49 -8.65,15.14 -15.15,23.8l-8.65 15.14c8.65,-15.14 -4.33,-45.44 -8.65,-54.09 -6.49,-10.82 -15.15,-23.8 -23.8,-30.29 -2.17,-2.16 -8.66,-8.65 -15.15,-2.16l-8.65 15.14c-2.17,4.33 -4.33,8.66 -4.33,15.15 -2.16,6.49 -2.16,12.98 -2.16,21.63 0,10.82 2.16,10.82 4.32,19.48l30.29 56.25c-2.16,2.16 -12.98,15.15 -17.31,19.47 -4.32,4.33 -2.16,4.33 -6.49,8.66 -2.16,2.16 -4.32,2.16 -4.32,4.32l0 2.17c0,0 0,2.16 0,2.16 0,-2.16 0,0 0,0 0,-6.49 2.16,-6.49 4.32,-12.98 4.33,-12.98 0,-30.29 -4.32,-43.27l-10.82 -23.8c-6.49,-8.66 -10.82,-15.15 -15.15,-21.64 -12.98,4.33 -4.32,-2.16 -10.82,6.49 -12.98,12.98 -21.63,41.11 -21.63,58.42 0,17.31 10.82,58.42 23.8,67.07 -6.49,4.33 -10.82,8.66 -15.15,15.15 -2.16,0 -8.65,4.32 -8.65,4.32 -2.17,2.17 2.16,2.17 -4.33,0 0,0 0,-2.16 0,-2.16l4.33 -23.8c0,-23.8 -6.49,-45.43 -19.47,-64.91 -12.99,2.17 -6.5,0 -12.99,4.33l-15.14 17.31c-6.49,8.65 -10.82,19.47 -15.15,32.45 -4.32,25.97 2.17,54.09 10.82,77.89l-41.11 25.97c12.98,-4.33 21.64,-30.29 23.8,-47.6 2.17,-23.8 -6.49,-45.44 -10.82,-62.75 -17.3,0 -25.96,10.82 -34.61,23.8 0,0 -2.17,0 -2.17,0 0,0 0,2.17 0,2.17l-15.14 21.63c-6.49,15.15 -6.49,43.27 -6.49,62.75 0,10.82 2.16,10.82 2.16,19.47 -6.49,0 -41.11,12.98 -43.27,17.31l17.31 -17.31c15.14,-17.31 19.47,-71.4 12.98,-88.71 -2.17,0 0,-2.16 -6.49,-2.16 -2.17,0 -4.33,2.16 -6.49,2.16 -2.17,0 -4.33,0 -6.49,2.16 -15.15,8.66 -30.3,19.48 -38.95,34.62 -12.98,17.31 -19.47,45.44 -19.47,75.73 -6.49,2.16 -21.64,6.49 -30.29,8.65 -4.33,0 -10.82,2.17 -15.15,4.33 -4.33,0 -10.82,2.16 -15.14,4.33l-56.26 21.63c-2.16,0 -23.8,-8.65 -28.12,-10.81 -19.48,-8.66 -38.95,-15.15 -60.59,-19.48 -8.65,-2.16 -21.63,-4.32 -28.12,-8.65 0,-30.29 -6.49,-58.42 -19.48,-75.73 -12.98,-19.47 -34.61,-38.94 -58.41,-41.11 -8.66,23.8 -6.49,60.59 6.49,84.39 4.32,8.65 8.65,15.14 17.31,21.63 8.65,6.49 2.16,2.17 -19.48,-6.49 -23.8,-8.65 -19.47,-6.49 -15.14,-19.47 0,-4.33 0,-6.49 0,-10.82 0,-36.78 -2.17,-60.58 -28.13,-86.55 -8.65,-10.81 -12.98,-17.3 -28.13,-17.3 0,0 0,2.16 -2.16,2.16 -8.65,15.14 -12.98,38.94 -10.82,58.42 0,8.65 12.98,45.43 21.64,45.43 -6.49,-8.65 -23.8,-12.98 -34.62,-21.63 0,0 0,0 0,0 -2.16,-2.17 -4.33,4.32 -4.33,-6.49 2.17,-4.33 2.17,-4.33 4.33,-8.66 6.49,-25.96 10.82,-56.25 -2.16,-82.22 -4.33,-10.81 -10.82,-17.3 -17.31,-28.12 -6.49,-6.49 -6.49,-6.49 -15.15,-8.66 -12.98,10.82 -17.31,32.46 -21.63,47.6 -4.33,17.31 0,45.44 8.65,54.09 -2.16,-8.65 -19.47,-17.31 -25.96,-21.63 -2.17,-4.33 -4.33,-4.33 -6.49,-8.66 10.81,-10.82 21.63,-43.27 21.63,-67.07 0,-21.64 -4.32,-32.45 -12.98,-49.76 0,0 0,0 -2.16,0l-8.66 -15.15c-12.98,2.16 -15.14,10.82 -21.63,19.47 -12.99,21.64 -19.48,45.44 -15.15,69.24 2.16,15.15 4.33,10.82 4.33,10.82 -2.17,-2.17 -28.13,-34.62 -30.29,-36.78 8.65,-4.33 19.47,-21.64 23.8,-32.46 8.65,-19.47 17.31,-41.11 8.65,-64.91 -2.16,-8.65 -2.16,-17.31 -6.49,-23.8 -12.98,-15.14 -17.31,-4.32 -21.64,0l-21.63 28.13c-8.66,12.98 -12.98,32.45 -10.82,56.25 2.16,-2.16 2.16,0 0,-2.16 -4.33,-15.14 -17.31,-25.96 -21.64,-41.11 8.66,-2.16 12.99,-8.65 17.31,-15.14 2.17,-2.17 4.33,-4.33 6.49,-4.33 2.17,-4.33 6.49,-8.65 8.66,-12.98 10.82,-12.98 17.31,-30.29 17.31,-49.77 0,-23.8 -6.49,-30.29 -6.49,-36.78 -2.17,-2.16 -2.17,-2.16 -2.17,-2.16 -10.82,0 -10.82,0 -17.31,4.33 -4.32,4.32 -4.32,6.49 -8.65,8.65 -6.49,4.33 -12.98,10.82 -17.31,17.31 -6.49,6.49 -10.82,12.98 -12.98,21.64 -4.33,8.65 -4.33,19.47 -4.33,30.29 -2.16,-6.49 -4.33,-12.98 -6.49,-21.64 -4.33,-8.65 -8.65,-17.31 -8.65,-25.96 2.16,-2.17 2.16,0 4.32,-2.17 17.31,-8.65 32.46,-21.63 43.28,-34.61 10.81,-17.31 21.63,-51.93 12.98,-73.57l-8.66 0c-6.49,0 -12.98,6.49 -19.47,8.66 -8.65,4.32 -12.98,6.49 -21.64,12.98 -8.65,8.65 -21.63,28.13 -23.8,45.43 0,-19.47 -6.49,-30.29 -8.65,-47.59 25.96,-6.5 54.09,-21.64 67.07,-43.28 2.17,-4.32 2.17,-2.16 4.33,-8.65 8.65,-17.31 8.65,-23.8 8.65,-47.6 -25.96,0 -51.92,10.82 -69.23,30.29l-10.82 21.64c-2.16,4.32 -2.16,10.81 -2.16,0 0,-15.15 0,-32.46 0,-47.6 8.65,-4.33 25.96,-6.5 32.45,-8.66 2.16,-2.16 6.49,-2.16 8.66,-4.33 30.29,-10.81 51.92,-34.61 51.92,-71.4 -21.63,0 -41.11,2.17 -60.58,10.82 -25.96,12.98 -32.45,45.44 -28.13,25.97l6.49 -25.97c2.17,-8.65 4.33,-15.14 4.33,-23.8 28.13,0 51.93,-4.32 69.24,-15.14 15.14,-8.66 21.63,-19.48 30.29,-32.46l2.16 -15.14c0,-2.17 0,-2.17 0,-2.17 0,0 -2.16,0 -2.16,0 0,0 -2.17,-2.16 -2.17,-2.16l-10.81 0c-4.33,0 -10.82,0 -15.15,0 -12.98,0 -19.47,0 -28.13,2.16 -12.98,6.49 -28.12,15.15 -32.45,25.97 6.49,-4.33 8.65,-19.48 10.82,-28.13 2.16,-6.49 4.33,-15.15 8.65,-19.47 4.33,-6.49 -6.49,-2.17 4.33,-4.33 -2.16,-2.16 -4.33,2.16 32.45,2.16 30.29,0 71.4,-15.14 75.73,-49.76 -28.13,-10.82 -69.24,-12.98 -93.04,8.66 -4.32,2.16 -4.32,4.32 -4.32,6.49 4.32,-4.33 8.65,-12.99 10.82,-19.48l2.16 -2.16c2.16,-2.16 2.16,-4.33 4.33,-6.49l4.32 -8.66c2.17,-2.16 2.17,-4.32 4.33,-6.49 2.16,-4.32 6.49,-12.98 6.49,-8.65 10.82,0 6.49,2.16 17.31,4.33 21.64,6.49 43.27,8.65 64.91,0l12.98 -8.66c12.98,-8.65 19.47,-10.82 19.47,-23.8 -25.96,-17.31 -62.74,-23.8 -88.7,-6.49l0 -2.16c0,0 0,0 0,0 0,-2.17 2.16,-2.17 2.16,-2.17l23.8 -28.12c2.16,-4.33 4.33,-8.66 10.82,-8.66 4.32,8.66 41.11,19.47 56.25,21.64 19.47,2.16 32.46,-4.33 47.6,-12.98 36.78,-21.64 -54.09,-43.28 -82.22,-32.46 17.31,-4.32 36.79,-32.45 49.77,-45.43 25.96,21.63 60.58,49.76 106.01,23.8 -2.16,-8.66 -8.65,-10.82 -17.3,-17.31 -41.11,-30.29 -49.77,-8.66 -80.06,-8.66 4.33,-8.65 4.33,-10.82 15.15,-12.98 -8.66,-10.82 2.16,-12.98 8.65,-21.64 15.15,-19.47 10.82,-64.9 0,-75.72l-2.16 2.16c0,0 0,0 -2.17,0l-12.98 17.31c-28.12,36.78 -6.49,71.4 -8.65,88.71l-8.66 2.16z"/>
   <path class="fil1" d="M1027.12 1571.54c2.16,-8.66 8.65,-10.82 19.47,-17.31 4.33,-4.33 15.15,-12.98 23.8,-15.15 19.48,-4.33 45.44,6.49 49.77,6.49 8.65,0 0,-4.32 12.98,0 -4.33,6.49 0,0 -4.33,4.33l-15.14 12.98c-8.66,6.49 -12.99,8.66 -23.8,12.98 -30.3,12.99 -38.95,2.17 -62.75,-4.32zm71.4 -136.31c10.82,6.49 25.96,21.63 30.29,41.11 6.49,30.29 -4.33,41.11 -4.33,64.91 -8.65,-4.33 -8.65,-8.66 -10.81,-4.33 -2.17,-38.95 -41.11,-17.31 -15.15,-101.69zm-183.91 23.8c10.82,-6.49 30.29,-8.66 45.44,-4.33 8.65,2.16 17.31,6.49 23.8,12.98l6.49 8.66c-17.31,12.98 -38.95,8.65 -56.26,-2.17 -4.32,-2.16 0,0 -4.32,-2.16 -8.66,-4.33 -10.82,-6.49 -15.15,-12.98zm123.33 32.45c-2.17,0 -4.33,0 -8.66,-6.49 -23.8,-30.29 -41.11,-19.47 -30.29,-86.54 12.98,4.32 32.46,23.8 36.78,34.61 2.17,8.66 10.82,51.93 2.17,58.42zm134.14 88.71c-2.16,-8.65 2.17,2.16 -2.16,-4.33 -2.16,0 -2.16,-2.16 -4.33,-4.32 -4.33,-4.33 -4.33,-4.33 -6.49,-10.82 -10.82,-4.33 -19.47,-15.15 -30.29,-21.64 2.16,-21.63 10.82,-36.78 4.33,-64.91 -4.33,-17.31 -21.64,-34.61 -34.62,-41.11 -10.82,10.82 -12.98,30.29 -12.98,45.44 0,28.13 12.98,30.29 15.14,41.11 -2.16,2.16 -43.27,-19.47 -56.25,-25.96 0,-28.13 6.49,-36.79 -6.49,-64.91 -8.66,-15.15 -25.97,-30.29 -41.11,-34.62 -21.64,51.93 17.31,77.89 15.14,84.38 -2.16,0 -8.65,-2.16 -12.98,-2.16 -6.49,-4.33 -2.16,0 -10.82,-6.49 -4.32,-6.5 -12.98,-12.99 -19.47,-17.31 -17.31,-8.66 -43.27,-6.49 -58.42,4.32 4.33,12.99 38.95,34.62 56.26,32.46 25.96,-4.33 15.14,-12.98 49.76,0 6.49,2.16 10.82,2.16 12.98,6.49 -10.81,0 -12.98,-2.16 -30.29,0 -19.47,4.33 -47.6,32.45 -51.92,47.6 30.29,17.31 73.56,0 86.54,-23.8 -4.33,4.33 -4.33,2.16 -8.65,6.49 -8.66,6.49 -10.82,10.82 -23.8,15.15 -15.15,6.49 -38.95,6.49 -47.6,-2.17 12.98,-23.8 38.94,-41.11 67.07,-38.94 4.33,0 12.98,2.16 15.14,2.16 15.15,0 0,-4.33 15.15,-4.33 -2.16,2.17 -10.82,15.15 -10.82,17.31 8.66,-2.16 4.33,-2.16 10.82,-8.65 10.82,2.16 47.6,17.31 47.6,28.12 -23.8,0 -23.8,-2.16 -45.44,8.66 -8.65,6.49 -28.12,19.47 -30.29,28.13 6.49,8.65 28.13,15.14 41.11,15.14 19.47,0 45.44,-15.14 60.58,-25.96 15.15,-15.15 10.82,-4.33 47.6,19.47z"/>
   <path class="fil1" d="M685.27 1541.25c-19.48,8.65 -45.44,4.32 -60.58,-6.5 -10.82,-4.32 -32.46,-23.8 -36.79,-36.78 15.15,0 0,4.33 15.15,4.33 6.49,0 23.8,-8.65 47.6,2.16 2.16,2.17 8.65,6.49 10.82,8.66 4.32,2.16 2.16,0 4.32,4.33 8.66,6.49 15.15,10.81 19.48,23.8zm36.78 -77.9c-10.82,4.33 -17.31,12.99 -32.46,17.31 -15.14,6.49 -28.12,2.17 -41.1,-2.16 2.16,-10.82 19.47,-21.64 28.12,-23.8 19.48,-6.49 36.78,2.16 45.44,2.16 0,2.17 0,6.49 0,6.49zm-125.49 30.3c2.16,-25.97 -6.49,-75.73 41.11,-95.2 8.65,10.81 8.65,51.92 -12.98,71.4 -2.17,2.16 -6.49,6.49 -8.66,8.65 -4.33,4.33 -4.33,6.49 -8.65,8.65 -2.17,2.17 -6.49,4.33 -10.82,6.5zm-93.04 51.92l8.66 -2.16c2.16,-17.31 -19.47,-51.93 8.65,-88.71l12.98 -17.31c2.17,0 2.17,0 2.17,0l2.16 -2.16c10.82,10.82 15.15,56.25 0,75.72 -6.49,8.66 -17.31,10.82 -8.65,21.64 -10.82,2.16 -10.82,4.33 -15.15,12.98 30.29,0 38.95,-21.63 80.06,8.66 8.65,6.49 15.14,8.65 17.3,17.31 -45.43,25.96 -80.05,-2.17 -106.01,-23.8l-8.66 8.65c10.82,-6.49 15.15,2.16 25.97,8.66 8.65,6.49 15.14,10.81 25.96,15.14 23.8,10.82 47.6,4.33 67.07,-6.49 -2.16,-10.82 -23.8,-25.96 -34.62,-32.45 -32.45,-15.15 -43.27,0 -51.92,-4.33 0,-2.17 -2.17,0 2.16,-4.33 2.16,-2.16 4.33,-2.16 6.49,-2.16 58.42,-34.62 45.44,-28.13 62.75,-8.66 19.47,19.48 51.92,36.78 88.7,21.64 -2.16,-12.98 -28.12,-41.11 -49.76,-47.6 -25.96,-4.33 -21.63,6.49 -23.8,-4.33 4.33,-2.16 21.64,-10.82 25.97,-10.82 8.65,0 19.47,8.66 30.29,8.66 15.14,0 43.27,-12.98 49.76,-25.97 4.33,-2.16 4.33,-2.16 6.49,-6.49 -6.49,-4.32 -17.31,-6.49 -28.13,-8.65 -38.94,-8.65 -41.11,25.96 -75.72,32.45 6.49,-15.14 12.98,-6.49 19.47,-38.94 4.33,-15.15 2.16,-32.46 -2.16,-47.6 -15.15,2.16 -34.62,21.64 -41.11,34.62 -12.99,23.8 -8.66,54.09 -8.66,64.91l-54.09 25.96c0,-6.49 6.49,-12.98 8.66,-17.31 10.81,-17.31 4.32,-49.76 -6.5,-69.24 -12.98,4.33 -32.45,28.13 -34.61,45.44 -6.49,34.62 2.16,43.27 2.16,56.25 2.16,10.82 0,2.17 -4.33,10.82z"/>
   <path class="fil1" d="M1027.12 1571.54c23.8,6.49 32.45,17.31 62.75,4.32 10.81,-4.32 15.14,-6.49 23.8,-12.98l15.14 -12.98c4.33,-4.33 0,2.16 4.33,-4.33 -12.98,-4.32 -4.33,0 -12.98,0 -4.33,0 -30.29,-10.82 -49.77,-6.49 -8.65,2.17 -19.47,10.82 -23.8,15.15 -10.82,6.49 -17.31,8.65 -19.47,17.31z"/>
   <path class="fil1" d="M1098.52 1435.23c-25.96,84.38 12.98,62.74 15.15,101.69 2.16,-4.33 2.16,0 10.81,4.33 0,-23.8 10.82,-34.62 4.33,-64.91 -4.33,-19.48 -19.47,-34.62 -30.29,-41.11z"/>
   <path class="fil1" d="M685.27 1541.25c-4.33,-12.99 -10.82,-17.31 -19.48,-23.8 -2.16,-4.33 0,-2.17 -4.32,-4.33 -2.17,-2.17 -8.66,-6.49 -10.82,-8.66 -23.8,-10.81 -41.11,-2.16 -47.6,-2.16 -15.15,0 0,-4.33 -15.15,-4.33 4.33,12.98 25.97,32.46 36.79,36.78 15.14,10.82 41.1,15.15 60.58,6.5z"/>
   <path class="fil1" d="M596.56 1493.65c4.33,-2.17 8.65,-4.33 10.82,-6.5 4.32,-2.16 4.32,-4.32 8.65,-8.65 2.17,-2.16 6.49,-6.49 8.66,-8.65 21.63,-19.48 21.63,-60.59 12.98,-71.4 -47.6,19.47 -38.95,69.23 -41.11,95.2z"/>
   <path class="fil1" d="M1037.94 1491.48c8.65,-6.49 0,-49.76 -2.17,-58.42 -4.32,-10.81 -23.8,-30.29 -36.78,-34.61 -10.82,67.07 6.49,56.25 30.29,86.54 4.33,6.49 6.49,6.49 8.66,6.49z"/>
   <path class="fil1" d="M929.76 1472.01c4.32,2.16 0,0 4.32,2.16 17.31,10.82 38.95,15.15 56.26,2.17l-6.49 -8.66c-6.49,-6.49 -15.15,-10.82 -23.8,-12.98 -15.15,-4.33 -34.62,-2.16 -45.44,4.33 4.33,6.49 6.49,8.65 15.15,12.98z"/>
   <path class="fil1" d="M722.05 1463.35c0,0 0,-4.32 0,-6.49 -8.66,0 -25.96,-8.65 -45.44,-2.16 -8.65,2.16 -25.96,12.98 -28.12,23.8 12.98,4.33 25.96,8.65 41.1,2.16 15.15,-4.32 21.64,-12.98 32.46,-17.31z"/>
   <path class="fil1" d="M1037.21 1498.18c-18.59,-6.94 -30.97,-0.77 -48.61,3.38 -4.06,0.96 -20.91,13.44 -23.77,18.49 -0.55,0.97 -17.26,21.34 -13.77,22.19 15.43,3.78 10.56,6.66 33,6.66 23.36,0 60.25,-19.24 65.9,-42.69 3.33,-13.81 -11.18,-3.73 -14.08,-7.96l-0.11 4.05 1.44 -4.12z"/>
  </g>
  <path class="fil1" d="M783.01 1646.85c-6.46,-31.68 -2.91,-36.74 -5.18,-49.65 -66.49,80.87 60.73,305.06 109.8,397.54 11.98,22.73 22.39,46.62 34.37,69.35 5.41,10.58 9.25,22.32 13.08,34.06 3.84,11.74 5.35,20.34 -7.2,29.65 -12.85,-7.5 -22.04,-39.59 -32.1,-56.44 -40.12,-86.96 -171.82,-346.73 -150.73,-413.41 -29.06,26.4 -22.77,87.38 -14.4,124.93 16.29,87.6 68.04,190.25 110.55,270.58 11.97,22.73 23.95,45.45 34.36,69.34 8.49,18.02 32.5,53.71 16.81,65.34 -21.39,-15.75 -103.56,-195.54 -119.37,-230 -26.98,-62.67 -67.86,-153.92 -67.06,-225.02 -43.3,56.39 8.28,188.34 34.51,246.7 26.98,62.66 67.97,134.39 104.72,197.11 9.65,19.59 29.42,46.27 17.21,62.6 -13.25,-4.76 -36.4,-55.68 -46.45,-72.54 -30.94,-54.87 -51.81,-92.88 -78.04,-151.24 -7.73,-13.72 -10.4,-23.89 -15.41,-37.2 -8.49,-18.02 -6.51,-21.92 -9.94,-36.39 -40.74,86.09 49.15,213.97 97.47,302.15 6.57,12.14 20.52,30.98 6.4,41.44 -12.09,-3.19 -16.34,-12.2 -24.07,-25.92 -26.63,-55.63 -56.81,-106.2 -80.3,-164.15 -6.57,-12.15 -8.09,-20.75 -11.92,-32.49 -3.44,-14.48 -4.19,-18.78 -5.3,-30.11 -43.41,75.92 36.82,184.21 77.76,265.7 22.04,39.58 19.25,48.94 24.89,86.09 72.95,-49.19 136.13,-98.44 171.69,-168.55 39.93,-80.63 21.84,-128 -13.68,-198.92 -35.53,-70.91 -75.36,-141.07 -109.32,-213.15 -23.14,-50.91 -47.45,-103.4 -63.15,-157.4z"/>
 </g>
</svg>
