<svg xmlns="http://www.w3.org/2000/svg" viewBox="0 0 1322 1292" width="1322" height="1292">
	<style>
		tspan { white-space:pre }
		.shp0 { fill: #f8f8f8 } 
	</style>
	<g id="Слой_x0020_1">
		<path id="Layer" fill-rule="evenodd" class="shp0" d="M1937.22 787.54C1929.7 789.91 1921.2 791.1 1911.71 791.1C1899.06 791.1 1888.48 789.52 1879.98 786.36C1871.47 783.19 1865.84 777.66 1863.07 769.75C1850.42 732.97 1839.64 702.42 1830.74 678.1C1821.85 653.78 1814.83 632.72 1809.69 614.93L1807.31 614.93C1806.13 639.45 1805.14 661.89 1804.35 682.25C1803.56 702.62 1802.86 722.49 1802.27 741.87C1801.68 761.24 1800.99 780.82 1800.2 800.59C1799.4 820.36 1798.42 842.11 1797.23 865.84C1792.88 867.42 1787.05 868.91 1779.73 870.29C1772.42 871.67 1764.8 872.37 1756.89 872.37C1741.47 872.37 1729.41 869.7 1720.71 864.36C1712.01 859.02 1707.66 849.82 1707.66 836.78C1707.66 829.26 1707.96 818.88 1708.55 805.63C1709.14 792.39 1709.93 777.16 1710.92 759.96C1711.91 742.76 1713.1 724.27 1714.48 704.5C1715.87 684.73 1717.25 664.66 1718.63 644.29C1720.02 623.93 1721.3 603.76 1722.49 583.79C1723.68 563.82 1724.86 545.33 1726.05 528.33C1729.21 523.98 1735.64 519.13 1745.33 513.79C1755.02 508.46 1768.56 505.79 1785.96 505.79C1804.55 505.79 1819.18 508.75 1829.85 514.68C1840.53 520.62 1848.64 530.3 1854.17 543.75C1858.52 554.43 1863.07 566.39 1867.82 579.64C1872.56 592.88 1877.31 606.43 1882.05 620.27C1886.8 634.11 1891.44 647.85 1895.99 661.49C1900.54 675.14 1904.79 687.69 1908.75 699.16L1911.71 699.16C1922.78 664.36 1933.86 630.65 1944.93 598.02C1956 565.4 1965.69 538.02 1973.99 515.87C1979.53 513.1 1986.55 510.73 1995.05 508.75C2003.55 506.77 2012.95 505.79 2023.23 505.79C2041.02 505.79 2055.26 508.36 2065.94 513.5C2076.61 518.64 2082.94 526.15 2084.92 536.04C2086.5 543.95 2088.28 556.01 2090.26 572.22C2092.23 588.43 2094.21 607.02 2096.19 627.98C2098.16 648.94 2100.14 670.98 2102.12 694.12C2104.1 717.25 2105.88 739.59 2107.46 761.15C2109.04 782.7 2110.42 802.37 2111.61 820.17C2112.8 837.96 2113.59 851.8 2113.98 861.69C2108.05 865.25 2101.72 867.92 2095 869.7C2088.28 871.48 2079.78 872.37 2069.49 872.37C2056.44 872.37 2045.27 869.99 2035.98 865.25C2026.69 860.5 2021.65 851.21 2020.85 837.37C2018.09 791.5 2016.21 749.48 2015.22 711.32C2014.23 673.16 2013.14 641.82 2011.96 617.3L2008.99 617.3C2004.25 633.91 1997.42 654.87 1988.53 680.18C1979.63 705.49 1968.66 738.11 1955.61 778.05C1950.86 782.01 1944.73 785.17 1937.22 787.54ZM2281.84 797.92C2295.69 804.84 2311.7 808.3 2329.89 808.3C2346.5 808.3 2362.12 806.03 2376.75 801.48C2391.38 796.93 2403.25 791.89 2412.34 786.36C2418.27 790.31 2423.22 795.45 2427.17 801.78C2431.13 808.11 2433.1 815.03 2433.1 822.54C2433.1 831.63 2430.34 839.54 2424.8 846.27C2419.26 852.99 2411.65 858.62 2401.96 863.17C2392.27 867.72 2380.81 871.08 2367.56 873.26C2354.31 875.43 2339.78 876.52 2323.96 876.52C2300.63 876.52 2279.08 873.26 2259.3 866.73C2239.53 860.21 2222.53 850.52 2208.29 837.66C2194.06 824.81 2182.88 808.7 2174.78 789.32C2166.67 769.94 2162.62 747.21 2162.62 721.11C2162.62 695.8 2166.67 673.85 2174.78 655.27C2182.88 636.68 2193.76 621.26 2207.4 609C2221.05 596.74 2236.67 587.74 2254.26 582.01C2271.86 576.27 2289.95 573.41 2308.54 573.41C2328.71 573.41 2347.19 576.47 2364 582.6C2380.81 588.73 2395.24 597.33 2407.3 608.4C2419.36 619.48 2428.75 632.72 2435.48 648.15C2442.2 663.57 2445.56 680.38 2445.56 698.57C2445.56 711.22 2442.2 720.71 2435.48 727.04C2428.75 733.37 2419.26 737.52 2407 739.5L2252.78 762.63C2258.32 779.24 2268 791 2281.84 797.92ZM2266.72 656.15C2255.45 666.63 2248.83 681.76 2246.85 701.53L2360.14 683.14C2359.35 672.86 2354.8 663.17 2346.5 654.08C2338.2 644.98 2325.74 640.44 2309.13 640.44C2292.13 640.44 2277.99 645.68 2266.72 656.15ZM2571.9 870.29C2564.79 871.28 2556.88 871.77 2548.18 871.77C2530.38 871.77 2517.53 868.91 2509.62 863.17C2501.71 857.44 2497.76 846.27 2497.76 829.66L2497.76 648.74C2497.76 637.67 2500.53 628.18 2506.06 620.27C2511.6 612.36 2519.31 605.44 2529.2 599.51C2542.25 591.6 2557.96 585.37 2576.35 580.82C2594.74 576.27 2614.02 574 2634.19 574C2675.31 574 2695.88 587.84 2695.88 615.52C2695.88 622.25 2694.89 628.37 2692.91 633.91C2690.93 639.45 2688.76 644.19 2686.39 648.15C2677.29 646.17 2666.22 645.18 2653.17 645.18C2641.7 645.18 2630.23 646.57 2618.76 649.33C2607.3 652.1 2597.21 655.86 2588.51 660.6L2588.51 867.03C2584.56 868.21 2579.02 869.3 2571.9 870.29ZM2829.34 665.65C2814.31 679.29 2806.8 699.36 2806.8 725.85C2806.8 752.35 2814.02 772.12 2828.45 785.17C2842.88 798.22 2861.17 804.74 2883.32 804.74C2895.97 804.74 2907.14 803.06 2916.83 799.7C2926.52 796.34 2934.73 792.88 2941.45 789.32C2948.17 794.46 2953.41 799.9 2957.17 805.63C2960.92 811.37 2962.8 818.39 2962.8 826.69C2962.8 841.72 2954.89 853.78 2939.08 862.87C2923.26 871.97 2901.31 876.52 2873.23 876.52C2849.51 876.52 2827.86 873.35 2808.28 867.03C2788.71 860.7 2772 851.21 2758.16 838.55C2744.32 825.9 2733.64 810.18 2726.13 791.4C2718.61 772.61 2714.86 750.77 2714.86 725.85C2714.86 700.15 2719.01 677.81 2727.31 658.82C2735.62 639.84 2746.89 624.02 2761.13 611.37C2775.36 598.72 2791.97 589.23 2810.95 582.9C2829.93 576.57 2849.9 573.41 2870.86 573.41C2898.15 573.41 2919.6 578.35 2935.22 588.24C2950.84 598.12 2958.65 610.58 2958.65 625.61C2958.65 632.72 2956.97 639.25 2953.61 645.18C2950.25 651.11 2946.19 656.25 2941.45 660.6C2934.33 656.65 2925.93 653.09 2916.24 649.93C2906.55 646.76 2895.77 645.18 2883.91 645.18C2862.56 645.18 2844.37 652 2829.34 665.65ZM3267.69 851.01C3255.03 858.92 3239.41 865.15 3220.83 869.7C3202.24 874.24 3181.68 876.52 3159.14 876.52C3137.78 876.52 3118.41 874.24 3101.01 869.7C3083.61 865.15 3068.68 857.93 3056.22 848.05C3043.77 838.16 3034.08 825.7 3027.16 810.68C3020.24 795.65 3016.78 777.46 3016.78 756.1L3016.78 583.49C3021.13 582.31 3026.86 581.12 3033.98 579.93C3041.1 578.75 3049.01 578.15 3057.71 578.15C3075.5 578.15 3088.25 581.12 3095.97 587.05C3103.68 592.98 3107.53 604.25 3107.53 620.86L3107.53 755.51C3107.53 773.31 3112.08 786.06 3121.18 793.77C3130.27 801.48 3143.12 805.34 3159.73 805.34C3170.01 805.34 3178.61 804.45 3185.53 802.67C3192.45 800.89 3197.69 799.01 3201.25 797.03L3201.25 583.49C3205.21 582.31 3210.74 581.12 3217.86 579.93C3224.98 578.75 3232.89 578.15 3241.59 578.15C3259.38 578.15 3272.24 581.12 3280.14 587.05C3288.05 592.98 3292.01 604.25 3292.01 620.86L3292.01 808.3C3292.01 826.89 3283.9 841.13 3267.69 851.01ZM3432.59 870.29C3425.48 871.28 3417.57 871.77 3408.87 871.77C3391.07 871.77 3378.22 868.91 3370.31 863.17C3362.4 857.44 3358.45 846.27 3358.45 829.66L3358.45 648.74C3358.45 637.67 3361.22 628.18 3366.75 620.27C3372.29 612.36 3380 605.44 3389.89 599.51C3402.94 591.6 3418.65 585.37 3437.04 580.82C3455.43 576.27 3474.71 574 3494.88 574C3536 574 3556.57 587.84 3556.57 615.52C3556.57 622.25 3555.58 628.37 3553.6 633.91C3551.62 639.45 3549.45 644.19 3547.08 648.15C3537.98 646.17 3526.91 645.18 3513.86 645.18C3502.39 645.18 3490.92 646.57 3479.45 649.33C3467.99 652.1 3457.9 655.86 3449.2 660.6L3449.2 867.03C3445.25 868.21 3439.71 869.3 3432.59 870.29ZM3624.48 719.03C3612.81 687.2 3600.65 645.97 3588 595.35C3592.75 590.21 3599.37 585.77 3607.87 582.01C3616.37 578.25 3625.57 576.37 3635.45 576.37C3648.11 576.37 3658.39 579.04 3666.3 584.38C3674.21 589.72 3680.34 599.51 3684.69 613.74C3693.39 642.61 3702.18 671.08 3711.08 699.16C3719.98 727.24 3728.98 755.51 3738.07 783.98L3740.44 783.98C3745.19 770.54 3750.13 755.81 3755.27 739.79C3760.41 723.78 3765.36 707.17 3770.1 689.97C3774.85 672.76 3779.3 655.36 3783.45 637.77C3787.6 620.17 3791.26 603.07 3794.42 586.46C3806.68 579.73 3819.53 576.37 3832.98 576.37C3845.63 576.37 3856.51 579.14 3865.6 584.68C3874.7 590.21 3879.25 599.31 3879.25 611.96C3879.25 626.2 3876.77 644.29 3871.83 666.24C3866.89 688.19 3860.36 711.12 3852.26 735.05C3844.15 758.97 3835.06 782.7 3824.97 806.23C3814.89 829.76 3804.51 850.42 3793.83 868.21C3771.68 905.78 3751.71 933.76 3733.92 952.15C3716.12 970.53 3698.13 979.73 3679.94 979.73C3665.31 979.73 3653.25 975.28 3643.76 966.38C3634.27 957.49 3628.53 946.12 3626.56 932.28C3639.21 921.2 3652.36 908.25 3666 893.42C3679.64 878.59 3691.21 863.67 3700.7 848.64C3693.98 846.66 3686.96 842.21 3679.64 835.29C3672.33 828.37 3664.32 815.42 3655.62 796.44C3646.53 776.67 3636.15 750.86 3624.48 719.03Z" />
		<g id="_2858385491344">
			<path id="Layer" fill-rule="evenodd" class="shp0" d="M348.52 171.57C337.71 169.41 339.87 171.57 333.38 175.9C326.89 182.39 309.58 191.05 305.25 199.7C313.91 193.21 316.07 169.41 311.74 152.1C309.58 134.79 303.09 121.81 294.43 110.99C283.61 113.15 283.61 110.99 279.29 119.65C277.12 121.81 272.8 128.3 270.63 130.46C255.49 156.43 261.98 214.85 277.12 223.5C264.14 229.99 253.32 245.14 242.51 255.95C240.34 258.12 240.34 260.28 238.18 262.44C233.85 268.94 242.51 262.44 240.34 236.48C238.18 221.34 229.52 206.19 223.03 195.37C207.89 178.06 201.4 175.9 190.58 204.03C188.41 208.35 190.58 204.03 188.41 210.52C184.09 229.99 184.09 242.97 190.58 262.44C194.91 275.43 203.56 286.24 210.05 299.23C201.4 305.72 192.74 325.19 186.25 333.84C184.09 336.01 179.76 340.34 181.92 344.66C181.92 329.52 179.76 320.86 175.43 310.04L166.78 297.06C162.45 288.41 160.29 286.24 153.8 279.75C145.14 271.1 147.31 268.94 130 268.94C127.83 279.75 123.51 292.74 121.34 303.55C119.18 323.03 123.51 329.52 127.83 342.5C134.32 357.64 147.31 377.12 160.29 383.61C158.12 385.77 158.12 385.77 155.96 390.1L147.31 411.73C145.14 420.39 140.82 426.88 138.65 435.53C138.65 416.06 130 400.92 119.18 390.1C106.2 379.28 93.22 364.14 75.91 364.14C71.58 381.44 69.42 405.24 75.91 424.72C78.07 431.21 82.4 435.53 84.56 439.86C91.05 450.68 106.2 463.66 117.02 472.32C119.18 474.48 130 478.81 123.51 478.81C121.34 498.28 112.69 513.43 112.69 532.9C112.69 504.77 86.72 487.46 65.09 478.81C56.43 474.48 47.78 470.15 39.12 472.32C34.8 483.13 39.12 502.61 41.29 511.26C52.11 543.72 78.07 561.02 106.2 576.17C104.03 595.64 104.03 610.79 104.03 630.26C112.69 625.93 82.4 597.81 75.91 595.64C60.76 586.99 36.96 576.17 21.82 582.66L19.65 586.99C17.49 604.3 19.65 576.17 19.65 591.32C19.65 599.97 23.98 612.95 28.31 621.61L41.29 638.92C62.92 662.72 101.87 673.53 104.03 677.86C108.36 682.19 108.36 693.01 108.36 701.66L112.69 723.3C110.52 712.48 91.05 701.66 80.23 697.33C58.6 690.84 49.94 690.84 21.82 690.84C21.82 705.99 26.14 714.64 34.8 727.62C43.45 744.93 58.6 755.75 78.07 762.24C95.38 766.57 104.03 766.57 123.51 770.9C123.51 783.88 130 801.19 134.32 814.17L136.49 816.33C125.67 790.37 60.76 792.53 41.29 799.02C41.29 814.17 47.78 820.66 56.43 831.48C56.43 831.48 58.6 833.64 60.76 833.64C60.76 835.81 60.76 835.81 60.76 835.81L88.89 855.28C106.2 861.77 136.49 868.26 153.8 861.77L166.78 885.57C168.94 889.9 171.11 892.06 173.27 898.55C179.76 907.2 177.6 905.04 179.76 905.04C177.6 896.39 147.31 889.9 132.16 889.9C110.52 889.9 97.54 898.55 78.07 902.88C80.23 918.02 78.07 913.7 86.72 920.19C117.02 954.8 151.63 956.97 194.91 950.48C212.21 948.31 201.4 941.82 218.71 965.62C220.87 969.95 231.69 982.93 236.01 985.1C225.2 972.11 192.74 976.44 179.76 980.77C166.78 982.93 155.96 989.42 142.98 995.91C138.65 1000.24 136.49 998.08 134.32 1004.57C138.65 1017.55 158.12 1026.2 171.11 1032.69C175.43 1034.86 171.11 1032.69 177.6 1034.86C184.09 1037.02 188.41 1039.19 197.07 1039.19C216.54 1039.19 231.69 1037.02 249 1032.69C253.32 1030.53 255.49 1028.37 257.65 1028.37C259.81 1026.2 259.81 1026.2 264.14 1024.04C268.47 1021.88 266.31 1024.04 270.63 1021.88C274.96 1028.37 283.61 1034.86 287.94 1041.35C292.27 1045.68 294.43 1045.68 298.76 1050C303.09 1054.33 305.25 1056.49 307.41 1054.33L303.09 1052.17L300.92 1052.17C300.92 1052.17 300.92 1052.17 298.76 1052.17L292.27 1050C270.63 1047.84 216.54 1067.31 207.89 1091.11C212.21 1099.77 207.89 1091.11 212.21 1095.44C212.21 1097.6 214.38 1099.77 214.38 1099.77C244.67 1121.4 287.94 1119.24 320.4 1101.93C329.05 1097.6 337.71 1086.79 348.52 1086.79C350.69 1091.11 378.81 1110.59 383.14 1108.42C355.01 1104.09 298.76 1140.88 294.43 1164.68C305.25 1179.82 283.61 1158.18 298.76 1169C300.92 1169 300.92 1171.17 303.09 1171.17C305.25 1173.33 309.58 1173.33 313.91 1175.49C380.98 1197.13 413.43 1145.2 432.9 1136.55C435.07 1136.55 435.07 1136.55 437.23 1138.71L471.85 1151.69C474.01 1151.69 469.69 1153.86 474.01 1151.69C452.38 1151.69 437.23 1160.35 424.25 1175.49C422.09 1175.49 422.09 1175.49 422.09 1175.49C422.09 1175.49 422.09 1175.49 422.09 1177.66L411.27 1186.31C409.1 1190.64 406.94 1192.8 402.61 1199.29C400.45 1203.62 393.96 1210.11 393.96 1216.6C393.96 1223.09 393.96 1225.26 400.45 1227.42C445.89 1236.08 474.01 1225.26 506.47 1194.97C510.79 1190.64 523.78 1173.33 525.94 1169C543.25 1171.17 556.23 1175.49 573.54 1179.82L584.36 1181.98L586.52 1181.98L590.85 1184.15L590.85 1184.15L603.83 1188.48C612.49 1190.64 618.98 1194.97 627.63 1197.13C627.63 1203.62 629.79 1199.29 623.3 1203.62L580.03 1229.58C564.89 1244.73 558.39 1244.73 556.23 1259.88C569.21 1268.53 575.7 1281.51 588.69 1268.53L664.41 1214.44C677.39 1227.42 724.99 1249.06 742.3 1275.02L755.28 1275.02C761.78 1266.37 776.92 1262.04 766.1 1249.06L759.61 1240.4L757.45 1240.4L753.12 1236.08C746.63 1229.58 742.3 1225.26 735.81 1220.93C727.16 1216.6 705.52 1201.46 696.87 1199.29L746.63 1179.82C753.12 1177.66 766.1 1175.49 774.76 1173.33C783.41 1171.17 792.07 1169 802.88 1169C807.21 1177.66 815.87 1188.48 824.52 1194.97L843.99 1212.28C882.94 1240.4 904.57 1227.42 934.87 1225.26C932.7 1194.97 889.43 1151.69 854.81 1151.69C872.12 1151.69 882.94 1138.71 898.08 1136.55C902.41 1145.2 915.39 1153.86 921.88 1158.18C926.21 1162.51 932.7 1164.68 937.03 1166.84C947.85 1173.33 960.83 1179.82 973.81 1179.82C982.46 1179.82 1030.06 1177.66 1032.23 1166.84C1032.23 1164.68 1034.39 1164.68 1034.39 1164.68C1032.23 1156.02 1032.23 1158.18 1025.74 1151.69L1021.41 1145.2C999.77 1125.73 980.3 1104.09 943.52 1108.42C956.5 1104.09 975.97 1086.79 984.63 1086.79C993.28 1101.93 1058.19 1130.06 1105.79 1104.09C1123.1 1095.44 1123.1 1088.95 1110.12 1078.13C1086.32 1062.99 1058.19 1043.51 1027.9 1052.17L1019.25 1056.49C1021.41 1056.49 1025.74 1052.17 1030.06 1050L1060.36 1021.88C1062.52 1026.2 1069.01 1028.37 1075.5 1030.53C1118.77 1043.51 1142.57 1043.51 1181.52 1017.55C1188.01 1013.22 1196.66 1008.89 1188.01 1000.24C1181.52 991.59 1168.54 987.26 1157.72 982.93L1146.9 980.77C1136.08 976.44 1127.43 974.28 1114.45 976.44C1107.96 978.6 1097.14 980.77 1092.81 985.1C1103.63 980.77 1114.45 950.48 1125.26 946.15C1129.59 952.64 1133.92 950.48 1142.57 950.48C1146.9 952.64 1157.72 954.8 1162.05 954.8C1179.35 956.97 1203.15 950.48 1218.3 941.82C1231.28 933.17 1248.59 920.19 1248.59 902.88C1231.28 896.39 1211.81 889.9 1192.34 889.9C1181.52 889.9 1172.86 892.06 1164.21 896.39C1157.72 898.55 1149.06 900.71 1146.9 907.2C1157.72 902.88 1162.05 881.24 1168.54 870.42C1170.7 866.1 1172.86 863.93 1177.19 861.77C1177.19 861.77 1179.35 861.77 1179.35 863.93L1185.85 863.93C1188.01 863.93 1194.5 863.93 1196.66 863.93C1213.97 861.77 1235.61 857.44 1248.59 850.95C1268.06 840.13 1285.37 820.66 1287.54 799.02C1263.74 790.37 1218.3 790.37 1196.66 809.84C1192.34 812.01 1192.34 814.17 1192.34 816.33C1192.34 809.84 1198.83 799.02 1198.83 792.53L1207.48 768.73C1242.1 768.73 1276.72 755.75 1294.03 725.46C1300.52 714.64 1307.01 705.99 1307.01 690.84C1276.72 690.84 1259.41 690.84 1235.61 701.66C1229.12 705.99 1224.79 708.15 1218.3 716.81C1216.14 721.13 1216.14 721.13 1216.14 725.46C1218.3 708.15 1222.63 693.01 1222.63 675.7C1226.95 673.53 1231.28 673.53 1237.77 671.37C1246.43 669.21 1246.43 667.04 1252.92 664.88C1287.54 647.57 1307.01 621.61 1307.01 580.5C1285.37 580.5 1268.06 586.99 1250.75 597.81C1246.43 597.81 1248.59 597.81 1246.43 599.97C1231.28 608.62 1233.45 615.12 1224.79 623.77C1224.79 608.62 1222.63 593.48 1222.63 576.17C1248.59 563.19 1281.04 543.72 1287.54 511.26C1289.7 496.12 1289.7 487.46 1289.7 470.15C1274.55 470.15 1270.23 474.48 1259.41 478.81C1246.43 485.3 1237.77 491.79 1229.12 502.61L1213.97 530.73C1213.97 506.93 1205.32 493.95 1203.15 476.64C1216.14 474.48 1237.77 446.35 1246.43 435.53C1255.08 420.39 1261.57 381.44 1248.59 364.14C1237.77 366.3 1233.45 370.63 1226.95 374.95C1209.65 387.93 1190.17 403.08 1190.17 429.04L1168.54 383.61C1179.35 377.12 1190.17 359.81 1194.5 348.99L1200.99 338.17C1205.32 327.35 1209.65 316.54 1207.48 299.23L1198.83 273.26C1196.66 264.61 1198.83 275.43 1196.66 266.77C1179.35 268.94 1168.54 284.08 1159.88 297.06C1149.06 314.37 1146.9 318.7 1146.9 346.83C1149.06 344.66 1144.74 338.17 1142.57 333.84C1138.25 325.19 1123.1 301.39 1116.61 297.06C1131.75 288.41 1149.06 240.81 1138.25 208.35C1133.92 195.37 1125.26 171.57 1110.12 188.88L1099.3 208.35C1097.14 208.35 1097.14 208.35 1097.14 208.35C1097.14 210.52 1097.14 210.52 1097.14 210.52L1094.97 214.85C1090.65 225.66 1079.83 253.79 1090.65 264.61C1086.32 255.95 1060.36 227.83 1051.7 223.5C1071.17 201.86 1075.5 152.1 1047.37 119.65C1043.05 110.99 1047.37 113.15 1036.56 110.99C1027.9 110.99 1025.74 126.14 1023.57 130.46C1021.41 139.12 1017.08 143.45 1014.92 152.1C1012.76 167.25 1014.92 195.37 1023.57 199.7C1021.41 193.21 1012.76 188.88 1004.1 186.72C1006.26 193.21 1006.26 193.21 1010.59 197.54C1012.76 199.7 1012.76 201.86 1014.92 201.86C1019.25 208.35 1014.92 197.54 1017.08 206.19C1017.08 212.68 1023.57 221.34 1027.9 219.17C1025.74 219.17 1019.25 212.68 1006.26 210.52C982.46 206.19 960.83 217.01 943.52 229.99C932.7 238.64 939.19 232.15 934.87 240.81L941.36 247.3C984.63 286.24 1036.56 247.3 1051.7 242.97C1056.03 249.46 1066.85 260.28 1073.34 266.77C1077.66 273.26 1090.65 288.41 1094.97 290.57C1088.48 284.08 1071.17 275.43 1062.52 273.26C1047.37 271.1 1032.23 275.43 1019.25 279.75C1008.43 284.08 1004.1 286.24 995.45 290.57C997.61 307.88 995.45 294.9 999.77 301.39L1004.1 307.88C1032.23 327.35 1047.37 331.68 1084.16 325.19C1094.97 325.19 1103.63 318.7 1112.28 316.54L1142.57 368.46C1138.25 355.48 1116.61 348.99 1103.63 346.83C1088.48 344.66 1060.36 346.83 1047.37 357.64C1049.54 387.93 1105.79 418.23 1157.72 400.92C1159.88 413.9 1168.54 426.88 1172.86 439.86C1172.86 444.19 1177.19 446.35 1172.86 446.35C1168.54 439.86 1151.23 429.04 1140.41 426.88C1129.59 424.72 1099.3 426.88 1086.32 426.88C1086.32 442.03 1086.32 437.7 1090.65 448.52L1107.96 470.15C1120.94 480.97 1136.08 489.63 1153.39 491.79C1183.68 496.12 1185.85 485.3 1192.34 509.1L1200.99 550.21C1196.66 535.06 1183.68 524.24 1168.54 515.59C1149.06 506.93 1133.92 506.93 1110.12 506.93C1110.12 526.41 1118.77 541.55 1129.59 556.7L1138.25 565.35C1198.83 610.79 1205.32 554.53 1205.32 645.41C1198.83 608.62 1155.55 586.99 1120.94 586.99C1120.94 625.93 1136.08 654.06 1170.7 673.53L1192.34 684.35C1200.99 686.52 1196.66 682.19 1198.83 686.52C1203.15 690.84 1194.5 731.95 1192.34 734.11C1192.34 708.15 1168.54 684.35 1146.9 673.53C1138.25 671.37 1136.08 667.04 1129.59 667.04L1123.1 667.04C1123.1 664.88 1120.94 667.04 1120.94 667.04L1120.94 669.21L1118.77 671.37L1118.77 673.53C1112.28 710.31 1129.59 742.77 1157.72 764.41C1177.19 777.39 1181.52 773.06 1181.52 781.71C1177.19 786.04 1175.03 796.86 1170.7 805.51C1159.88 833.64 1166.37 827.15 1166.37 827.15C1166.37 814.17 1166.37 805.51 1162.05 794.7C1155.55 777.39 1125.26 744.93 1105.79 742.77L1101.46 749.26C1090.65 768.73 1097.14 803.35 1105.79 820.66L1125.26 846.62C1129.59 850.95 1142.57 863.93 1146.9 866.1C1140.41 872.59 1138.25 881.24 1131.75 889.9L1123.1 905.04C1131.75 889.9 1118.77 859.6 1114.45 850.95C1107.96 840.13 1099.3 827.15 1090.65 820.66C1088.48 818.5 1081.99 812.01 1075.5 818.5L1066.85 833.64C1064.68 837.97 1062.52 842.3 1062.52 848.79C1060.36 855.28 1060.36 861.77 1060.36 870.42C1060.36 881.24 1062.52 881.24 1064.68 889.9L1094.97 946.15C1092.81 948.31 1081.99 961.3 1077.66 965.62C1073.34 969.95 1075.5 969.95 1071.17 974.28C1069.01 976.44 1066.85 976.44 1066.85 978.6L1066.85 980.77L1066.85 982.93C1066.85 980.77 1066.85 982.93 1066.85 982.93C1066.85 976.44 1069.01 976.44 1071.17 969.95C1075.5 956.97 1071.17 939.66 1066.85 926.68L1056.03 902.88C1049.54 894.22 1045.21 887.73 1040.88 881.24C1027.9 885.57 1036.56 879.08 1030.06 887.73C1017.08 900.71 1008.43 928.84 1008.43 946.15C1008.43 963.46 1019.25 1004.57 1032.23 1013.22C1025.74 1017.55 1021.41 1021.88 1017.08 1028.37C1014.92 1028.37 1008.43 1032.69 1008.43 1032.69C1006.26 1034.86 1010.59 1034.86 1004.1 1032.69L1004.1 1030.53L1008.43 1006.73C1008.43 982.93 1001.94 961.3 988.96 941.82C975.97 943.99 982.46 941.82 975.97 946.15L960.83 963.46C954.34 972.11 950.01 982.93 945.68 995.91C941.36 1021.88 947.85 1050 956.5 1073.8L915.39 1099.77C928.37 1095.44 937.03 1069.48 939.19 1052.17C941.36 1028.37 932.7 1006.73 928.37 989.42C911.07 989.42 902.41 1000.24 893.76 1013.22L891.59 1013.22L891.59 1015.39L876.45 1037.02C869.96 1052.17 869.96 1080.29 869.96 1099.77C869.96 1110.59 872.12 1110.59 872.12 1119.24C865.63 1119.24 831.01 1132.22 828.85 1136.55L846.16 1119.24C861.3 1101.93 865.63 1047.84 859.14 1030.53C856.97 1030.53 859.14 1028.37 852.65 1028.37C850.48 1028.37 848.32 1030.53 846.16 1030.53C843.99 1030.53 841.83 1030.53 839.67 1032.69C824.52 1041.35 809.37 1052.17 800.72 1067.31C787.74 1084.62 781.25 1112.75 781.25 1143.04C774.76 1145.2 759.61 1149.53 750.96 1151.69C746.63 1151.69 740.14 1153.86 735.81 1156.02C731.48 1156.02 724.99 1158.18 720.67 1160.35L664.41 1181.98C662.25 1181.98 640.61 1173.33 636.29 1171.17C616.81 1162.51 597.34 1156.02 575.7 1151.69C567.05 1149.53 554.07 1147.37 547.58 1143.04C547.58 1112.75 541.09 1084.62 528.1 1067.31C515.12 1047.84 493.49 1028.37 469.69 1026.2C461.03 1050 463.2 1086.79 476.18 1110.59C480.5 1119.24 484.83 1125.73 493.49 1132.22C502.14 1138.71 495.65 1134.39 474.01 1125.73C450.21 1117.08 454.54 1119.24 458.87 1106.26C458.87 1101.93 458.87 1099.77 458.87 1095.44C458.87 1058.66 456.7 1034.86 430.74 1008.89C422.09 998.08 417.76 991.59 402.61 991.59C402.61 991.59 402.61 993.75 400.45 993.75C391.8 1008.89 387.47 1032.69 389.63 1052.17C389.63 1060.82 402.61 1097.6 411.27 1097.6C404.78 1088.95 387.47 1084.62 376.65 1075.97L376.65 1075.97C374.49 1073.8 372.32 1080.29 372.32 1069.48C374.49 1065.15 374.49 1065.15 376.65 1060.82C383.14 1034.86 387.47 1004.57 374.49 978.6C370.16 967.79 363.67 961.3 357.18 950.48C350.69 943.99 350.69 943.99 342.03 941.82C329.05 952.64 324.72 974.28 320.4 989.42C316.07 1006.73 320.4 1034.86 329.05 1043.51C326.89 1034.86 309.58 1026.2 303.09 1021.88C300.92 1017.55 298.76 1017.55 296.6 1013.22C307.41 1002.4 318.23 969.95 318.23 946.15C318.23 924.51 313.91 913.7 305.25 896.39C305.25 896.39 305.25 896.39 303.09 896.39L294.43 881.24C281.45 883.4 279.29 892.06 272.8 900.71C259.81 922.35 253.32 946.15 257.65 969.95C259.81 985.1 261.98 980.77 261.98 980.77C259.81 978.6 233.85 946.15 231.69 943.99C240.34 939.66 251.16 922.35 255.49 911.53C264.14 892.06 272.8 870.42 264.14 846.62C261.98 837.97 261.98 829.31 257.65 822.82C244.67 807.68 240.34 818.5 236.01 822.82L214.38 850.95C205.72 863.93 201.4 883.4 203.56 907.2C205.72 905.04 205.72 907.2 203.56 905.04C199.23 889.9 186.25 879.08 181.92 863.93C190.58 861.77 194.91 855.28 199.23 848.79C201.4 846.62 203.56 844.46 205.72 844.46C207.89 840.13 212.21 835.81 214.38 831.48C225.2 818.5 231.69 801.19 231.69 781.71C231.69 757.91 225.2 751.42 225.2 744.93C223.03 742.77 223.03 742.77 223.03 742.77C212.21 742.77 212.21 742.77 205.72 747.1C201.4 751.42 201.4 753.59 197.07 755.75C190.58 760.08 184.09 766.57 179.76 773.06C173.27 779.55 168.94 786.04 166.78 794.7C162.45 803.35 162.45 814.17 162.45 824.99C160.29 818.5 158.12 812.01 155.96 803.35C151.63 794.7 147.31 786.04 147.31 777.39C149.47 775.22 149.47 777.39 151.63 775.22C168.94 766.57 184.09 753.59 194.91 740.61C205.72 723.3 216.54 688.68 207.89 667.04L199.23 667.04C192.74 667.04 186.25 673.53 179.76 675.7C171.11 680.02 166.78 682.19 158.12 688.68C149.47 697.33 136.49 716.81 134.32 734.11C134.32 714.64 127.83 703.82 125.67 686.52C151.63 680.02 179.76 664.88 192.74 643.24C194.91 638.92 194.91 641.08 197.07 634.59C205.72 617.28 205.72 610.79 205.72 586.99C179.76 586.99 153.8 597.81 136.49 617.28L125.67 638.92C123.51 643.24 123.51 649.73 123.51 638.92C123.51 623.77 123.51 606.46 123.51 591.32C132.16 586.99 149.47 584.82 155.96 582.66C158.12 580.5 162.45 580.5 164.62 578.33C194.91 567.52 216.54 543.72 216.54 506.93C194.91 506.93 175.43 509.1 155.96 517.75C130 530.73 123.51 563.19 127.83 543.72L134.32 517.75C136.49 509.1 138.65 502.61 138.65 493.95C166.78 493.95 190.58 489.63 207.89 478.81C223.03 470.15 229.52 459.33 238.18 446.35L240.34 431.21C240.34 429.04 240.34 429.04 240.34 429.04L238.18 429.04L236.01 426.88L225.2 426.88C220.87 426.88 214.38 426.88 210.05 426.88C197.07 426.88 190.58 426.88 181.92 429.04C168.94 435.53 153.8 444.19 149.47 455.01C155.96 450.68 158.12 435.53 160.29 426.88C162.45 420.39 164.62 411.73 168.94 407.41C173.27 400.92 162.45 405.24 173.27 403.08C171.11 400.92 168.94 405.24 205.72 405.24C236.01 405.24 277.12 390.1 281.45 355.48C253.32 344.66 212.21 342.5 188.41 364.14C184.09 366.3 184.09 368.46 184.09 370.63C188.41 366.3 192.74 357.64 194.91 351.15L197.07 348.99C199.23 346.83 199.23 344.66 201.4 342.5L205.72 333.84C207.89 331.68 207.89 329.52 210.05 327.35C212.21 323.03 216.54 314.37 216.54 318.7C227.36 318.7 223.03 320.86 233.85 323.03C255.49 329.52 277.12 331.68 298.76 323.03L311.74 314.37C324.72 305.72 331.21 303.55 331.21 290.57C305.25 273.26 268.47 266.77 242.51 284.08L242.51 281.92L242.51 281.92C242.51 279.75 244.67 279.75 244.67 279.75L268.47 251.63C270.63 247.3 272.8 242.97 279.29 242.97C283.61 251.63 320.4 262.44 335.54 264.61C355.01 266.77 368 260.28 383.14 251.63C419.92 229.99 329.05 208.35 300.92 219.17C318.23 214.85 337.71 186.72 350.69 173.74C376.65 195.37 411.27 223.5 456.7 197.54C454.54 188.88 448.05 186.72 439.4 180.23C398.29 149.94 389.63 171.57 359.34 171.57C363.67 162.92 363.67 160.75 374.49 158.59C365.83 147.77 376.65 145.61 383.14 136.95C398.29 117.48 393.96 72.05 383.14 61.23L380.98 63.39C380.98 63.39 380.98 63.39 378.81 63.39L365.83 80.7C337.71 117.48 359.34 152.1 357.18 169.41L348.52 171.57L348.52 171.57Z" />
			<path id="Layer" fill-rule="evenodd" class="shp0" d="M934.87 201.86C945.68 197.54 950.01 195.37 958.67 188.88L973.81 175.9C978.14 171.57 973.81 178.06 978.14 171.57C965.16 167.25 973.81 171.57 965.16 171.57C960.83 171.57 934.87 160.75 915.39 165.08C906.74 167.25 895.92 175.9 891.59 180.23C880.77 186.72 874.28 188.88 872.12 197.54C895.92 204.03 904.57 214.85 934.87 201.86ZM969.48 186.72C954.34 197.54 928.37 212.68 908.9 212.68C895.92 212.68 874.28 206.19 867.79 197.54C869.96 188.88 889.43 175.9 898.08 169.41C919.72 158.59 919.72 160.75 943.52 160.75C943.52 149.94 906.74 134.79 895.92 132.63C889.43 139.12 893.76 139.12 885.1 141.28C885.1 139.12 893.76 126.14 895.92 123.97C880.77 123.97 895.92 128.3 880.77 128.3C878.61 128.3 869.96 126.14 865.63 126.14C837.5 123.97 811.54 141.28 798.56 165.08C807.21 173.74 831.01 173.74 846.16 167.25C859.14 162.92 861.3 158.59 869.96 152.1C874.28 147.77 874.28 149.94 878.61 145.61C865.63 169.41 822.36 186.72 792.07 169.41C796.39 154.26 824.52 126.14 843.99 121.81C861.3 119.65 863.47 121.81 874.28 121.81C872.12 117.48 867.79 117.48 861.3 115.32C826.68 102.34 837.5 110.99 811.54 115.32C794.23 117.48 759.61 95.85 755.28 82.86C770.43 72.05 796.39 69.88 813.7 78.54C820.19 82.86 828.85 89.35 833.17 95.85C841.83 102.34 837.5 98.01 843.99 102.34C848.32 102.34 854.81 104.5 856.97 104.5C859.14 98.01 820.19 72.05 841.83 20.12C856.97 24.45 874.28 39.59 882.94 54.74C895.92 82.86 889.43 91.52 889.43 119.65C902.41 126.14 943.52 147.77 945.68 145.61C943.52 134.79 930.54 132.63 930.54 104.5C930.54 89.35 932.7 69.88 943.52 59.06C956.5 65.56 973.81 82.86 978.14 100.17C984.63 128.3 975.97 143.45 973.81 165.08C984.63 171.57 993.28 182.39 1004.1 186.72C1006.26 193.21 1006.26 193.21 1010.59 197.54C1012.76 199.7 1012.76 201.86 1014.92 201.86C1015.76 203.12 1016.28 203.73 1016.58 203.95C1016.68 204.49 1016.84 205.21 1017.08 206.19C980.3 182.39 984.63 171.57 969.48 186.72ZM759.61 85.03C763.94 91.52 766.1 93.68 774.76 98.01C779.08 100.17 774.76 98.01 779.08 100.17C796.39 110.99 818.03 115.32 835.34 102.34L828.85 93.68C822.36 87.19 813.7 82.86 805.05 80.7C789.9 76.37 770.43 78.54 759.61 85.03ZM880.77 59.06C876.45 48.25 856.97 28.77 843.99 24.45C833.17 91.52 850.48 80.7 874.28 110.99C878.61 117.48 880.77 117.48 882.94 117.48C891.59 110.99 882.94 67.72 880.77 59.06ZM958.67 162.92C960.83 158.59 960.83 162.92 969.48 167.25C969.48 143.45 980.3 132.63 973.81 102.34C969.48 82.86 954.34 67.72 943.52 61.23C917.56 145.61 956.5 123.97 958.67 162.92Z" />
			<path id="Layer" fill-rule="evenodd" class="shp0" d="M348.52 171.57C352.85 162.92 355.01 171.57 352.85 160.75C352.85 147.77 344.2 139.12 350.69 104.5C352.85 87.19 372.32 63.39 385.3 59.06C396.12 78.54 402.61 110.99 391.8 128.3C389.63 132.63 383.14 139.12 383.14 145.61L437.23 119.65C437.23 108.83 432.9 78.54 445.89 54.74C452.38 41.76 471.85 22.28 487 20.12C491.32 35.26 493.49 52.57 489.16 67.72C482.67 100.17 476.18 91.52 469.69 106.66C504.3 100.17 506.47 65.56 545.41 74.21C556.23 76.37 567.05 78.54 573.54 82.86C571.38 87.19 571.38 87.19 567.05 89.35C560.56 102.34 532.43 115.32 517.29 115.32C506.47 115.32 495.65 106.66 487 106.66C482.67 106.66 465.36 115.32 461.03 117.48C463.2 128.3 458.87 117.48 484.83 121.81C506.47 128.3 532.43 156.43 534.59 169.41C497.81 184.55 465.36 167.25 445.89 147.77C428.58 128.3 441.56 121.81 383.14 156.43C380.98 156.43 378.81 156.43 376.65 158.59C372.32 162.92 374.49 160.75 374.49 162.92C383.14 167.25 393.96 152.1 426.41 167.25C437.23 173.74 458.87 188.88 461.03 199.7C441.56 210.52 417.76 217.01 393.96 206.19C383.14 201.86 376.65 197.54 368 191.05C357.18 184.55 352.85 175.9 342.03 182.39L350.69 173.74C376.65 195.37 411.27 223.5 456.7 197.54C454.54 188.88 448.05 186.72 439.4 180.23C398.29 149.94 389.63 171.57 359.34 171.57C363.67 162.92 363.67 160.75 374.49 158.59C365.83 147.77 376.65 145.61 383.14 136.95C398.29 117.48 393.96 72.05 383.14 61.23L380.98 63.39C380.98 63.39 380.98 63.39 378.81 63.39L365.83 80.7C337.71 117.48 359.34 152.1 357.18 169.41L348.52 171.57ZM567.05 82.86C558.39 82.86 541.09 74.21 521.61 80.7C512.96 82.86 495.65 93.68 493.49 104.5C506.47 108.83 519.45 113.15 534.59 106.66C549.74 102.34 556.23 93.68 567.05 89.35C567.05 89.35 567.05 85.03 567.05 82.86ZM441.56 119.65C445.89 117.48 450.21 115.32 452.38 113.15C456.7 110.99 456.7 108.83 461.03 104.5C463.2 102.34 467.52 98.01 469.69 95.85C491.32 76.37 491.32 35.26 482.67 24.45C435.07 43.92 443.72 93.68 441.56 119.65ZM530.27 167.25C525.94 154.26 519.45 149.94 510.79 143.45C508.63 139.12 510.79 141.28 506.47 139.12C504.3 136.95 497.81 132.63 495.65 130.46C471.85 119.65 454.54 128.3 448.05 128.3C432.9 128.3 448.05 123.97 432.9 123.97C437.23 136.95 458.87 156.43 469.69 160.75C484.83 171.57 510.79 175.9 530.27 167.25Z" />
			<path id="Layer" fill-rule="evenodd" class="shp0" d="M872.12 197.54C895.92 204.03 904.57 214.85 934.87 201.86C945.68 197.54 950.01 195.37 958.67 188.88L973.81 175.9C978.14 171.57 973.81 178.06 978.14 171.57C965.16 167.25 973.81 171.57 965.16 171.57C960.83 171.57 934.87 160.75 915.39 165.08C906.74 167.25 895.92 175.9 891.59 180.23C880.77 186.72 874.28 188.88 872.12 197.54Z" />
			<path id="Layer" fill-rule="evenodd" class="shp0" d="M943.52 61.23C917.56 145.61 956.5 123.97 958.67 162.92C960.83 158.59 960.83 162.92 969.48 167.25C969.48 143.45 980.3 132.63 973.81 102.34C969.48 82.86 954.34 67.72 943.52 61.23Z" />
			<path id="Layer" fill-rule="evenodd" class="shp0" d="M530.27 167.25C525.94 154.26 519.45 149.94 510.79 143.45C508.63 139.12 510.79 141.28 506.47 139.12C504.3 136.95 497.81 132.63 495.65 130.46C471.85 119.65 454.54 128.3 448.05 128.3C432.9 128.3 448.05 123.97 432.9 123.97C437.23 136.95 458.87 156.43 469.69 160.75C484.83 171.57 510.79 175.9 530.27 167.25L530.27 167.25Z" />
			<path id="Layer" fill-rule="evenodd" class="shp0" d="M441.56 119.65C445.89 117.48 450.21 115.32 452.38 113.15C456.7 110.99 456.7 108.83 461.03 104.5C463.2 102.34 467.52 98.01 469.69 95.85C491.32 76.37 491.32 35.26 482.67 24.45C435.07 43.92 443.72 93.68 441.56 119.65L441.56 119.65Z" />
			<path id="Layer" fill-rule="evenodd" class="shp0" d="M882.94 117.48C891.59 110.99 882.94 67.72 880.77 59.06C876.45 48.25 856.97 28.77 843.99 24.45C833.17 91.52 850.48 80.7 874.28 110.99C878.61 117.48 880.77 117.48 882.94 117.48Z" />
			<path id="Layer" fill-rule="evenodd" class="shp0" d="M774.76 98.01C779.08 100.17 774.76 98.01 779.08 100.17C796.39 110.99 818.03 115.32 835.34 102.34L828.85 93.68C822.36 87.19 813.7 82.86 805.05 80.7C789.9 76.37 770.43 78.54 759.61 85.03C763.94 91.52 766.1 93.68 774.76 98.01L774.76 98.01Z" />
			<path id="Layer" fill-rule="evenodd" class="shp0" d="M567.05 89.35C567.05 89.35 567.05 85.03 567.05 82.86C558.39 82.86 541.09 74.21 521.61 80.7C512.96 82.86 495.65 93.68 493.49 104.5C506.47 108.83 519.45 113.15 534.59 106.66C549.74 102.34 556.23 93.68 567.05 89.35Z" />
			<path id="Layer" fill-rule="evenodd" class="shp0" d="M882.21 124.18C863.62 117.24 851.24 123.41 833.6 127.56C829.54 128.52 812.69 141 809.83 146.05C809.28 147.02 792.57 167.39 796.06 168.24C811.49 172.02 806.62 174.9 829.06 174.9C852.42 174.9 889.31 155.66 894.96 132.21C898.29 118.4 883.78 128.48 880.88 124.25L880.77 128.3L882.21 124.18L882.21 124.18Z" />
		</g>
		<path id="Layer" fill-rule="evenodd" class="shp0" d="M628.01 272.85C621.55 241.17 625.1 236.11 622.83 223.2C556.34 304.07 683.56 528.26 732.63 620.74C744.61 643.47 755.02 667.36 767 690.09C772.41 700.67 776.25 712.41 780.08 724.15C783.92 735.89 785.43 744.49 772.88 753.8C760.03 746.3 750.84 714.21 740.78 697.36C700.66 610.4 568.96 350.63 590.05 283.95C560.99 310.35 567.28 371.33 575.65 408.88C591.94 496.48 643.69 599.13 686.2 679.46C698.17 702.19 710.15 724.91 720.56 748.8C729.05 766.82 753.06 802.51 737.37 814.14C715.98 798.39 633.81 618.6 618 584.14C591.02 521.47 550.14 430.22 550.94 359.12C507.64 415.51 559.22 547.46 585.45 605.82C612.43 668.48 653.42 740.21 690.17 802.93C699.82 822.52 719.59 849.2 707.38 865.53C694.13 860.77 670.98 809.85 660.93 792.99C629.99 738.12 609.12 700.11 582.89 641.75C575.16 628.03 572.49 617.86 567.48 604.55C558.99 586.53 560.97 582.63 557.54 568.16C516.8 654.25 606.69 782.13 655.01 870.31C661.58 882.45 675.53 901.29 661.41 911.75C649.32 908.56 645.07 899.55 637.34 885.83C610.71 830.2 580.53 779.63 557.04 721.68C550.47 709.53 548.95 700.93 545.12 689.19C541.68 674.71 540.93 670.41 539.82 659.08C496.41 735 576.64 843.29 617.58 924.78C639.62 964.36 636.83 973.72 642.47 1010.87C715.42 961.68 778.6 912.43 814.16 842.32C854.09 761.69 836 714.32 800.48 643.4C764.95 572.49 725.12 502.33 691.16 430.25C668.02 379.34 643.71 326.85 628.01 272.85L628.01 272.85Z" />
	</g>
</svg>