<svg xmlns="http://www.w3.org/2000/svg" viewBox="0 0 1353 1318" width="1353" height="1318">
	<style>
		tspan { white-space:pre }
		.shp0 { fill: none } 
		.shp1 { fill: #f8f8f8 } 
		.shp2 { fill: #000000 } 
	</style>
	<g id="Слой_x0020_1">
		<path id="Layer" class="shp0" d="M-29.02 -1441.01L4204.31 -1441.01L4204.31 2792.32L-29.02 2792.32L-29.02 -1441.01Z" />
		<path id="Layer" fill-rule="evenodd" class="shp1" d="M353.75 166.23C342.59 163.99 344.82 166.23 338.12 170.69C331.42 177.4 313.56 186.32 309.09 195.26C318.03 188.56 320.26 163.99 315.79 146.13C313.56 128.27 306.86 114.87 297.93 103.7C286.76 105.93 286.76 103.7 282.29 112.63C280.06 114.87 275.59 121.57 273.37 123.8C257.73 150.6 264.43 210.88 280.06 219.82C266.67 226.52 255.5 242.15 244.34 253.32C242.1 255.55 242.1 257.79 239.87 260.02C235.4 266.71 244.34 260.02 242.1 233.22C239.87 217.59 230.93 201.96 224.23 190.79C208.6 172.93 201.9 170.69 190.74 199.73C188.51 204.19 190.74 199.73 188.51 206.43C184.04 226.52 184.04 239.92 190.74 260.02C195.2 273.42 204.14 284.59 210.84 297.98C201.9 304.68 192.98 324.78 186.27 333.71C184.04 335.95 179.57 340.4 181.81 344.87C181.81 329.24 179.57 320.31 175.1 309.15L166.18 295.74C161.71 286.82 159.48 284.59 152.78 277.88C143.84 268.95 146.07 266.71 128.21 266.71C125.98 277.88 121.51 291.28 119.28 302.45C117.04 322.54 121.51 329.24 125.98 342.64C132.68 358.28 146.07 378.37 159.48 385.07C157.24 387.31 157.24 387.31 155.01 391.77L146.07 414.1C143.84 423.03 139.38 429.73 137.15 438.67C137.15 418.57 128.21 402.93 117.04 391.77C103.65 380.6 90.24 364.98 72.38 364.98C67.92 382.84 65.68 407.4 72.38 427.5C74.62 434.2 79.08 438.67 81.32 443.13C88.02 454.29 103.65 467.7 114.82 476.62C117.04 478.86 128.21 483.33 121.51 483.33C119.28 503.42 110.35 519.06 110.35 539.15C110.35 510.12 83.55 492.26 61.21 483.33C52.29 478.86 43.35 474.39 34.43 476.62C29.96 487.79 34.43 507.89 36.65 516.83C47.82 550.32 74.62 568.19 103.65 583.81C101.41 603.92 101.41 619.55 101.41 639.64C110.35 635.17 79.08 606.14 72.38 603.92C56.76 594.98 32.19 583.81 16.55 590.52L14.32 594.98C12.09 612.84 14.32 583.81 14.32 599.45C14.32 608.38 18.79 621.78 23.26 630.72L36.65 648.58C58.99 673.14 99.18 684.3 101.41 688.77C105.88 693.24 105.88 704.41 105.88 713.33L110.35 735.67C108.12 724.5 88.02 713.33 76.85 708.87C54.52 702.17 45.59 702.17 16.55 702.17C16.55 717.8 21.02 726.74 29.96 740.13C38.88 758 54.52 769.16 74.62 775.86C92.48 780.33 101.41 780.33 121.51 784.8C121.51 798.19 128.21 816.05 132.68 829.46L134.91 831.69C123.74 804.89 56.76 807.13 36.65 813.83C36.65 829.46 43.35 836.16 52.29 847.32C52.29 847.32 54.52 849.55 56.76 849.55C56.76 851.79 56.76 851.79 56.76 851.79L85.79 871.88C103.65 878.58 134.91 885.29 152.78 878.58L166.18 903.15C168.4 907.62 170.64 909.85 172.87 916.55C179.57 925.48 177.34 923.24 179.57 923.24C177.34 914.32 146.07 907.62 130.45 907.62C108.12 907.62 94.71 916.55 74.62 921.02C76.85 936.65 74.62 932.18 83.55 938.88C114.82 974.6 150.54 976.84 195.2 970.15C213.07 967.91 201.9 961.21 219.77 985.77C222 990.24 233.17 1003.63 237.63 1005.87C226.47 992.47 192.98 996.94 179.57 1001.4C166.18 1003.63 155.01 1010.34 141.62 1017.04C137.15 1021.51 134.91 1019.27 132.68 1025.97C137.15 1039.37 157.24 1048.3 170.64 1055.01C175.1 1057.23 170.64 1055.01 177.34 1057.23C184.04 1059.46 188.51 1061.7 197.43 1061.7C217.54 1061.7 233.17 1059.46 251.03 1055.01C255.5 1052.77 257.73 1050.54 259.96 1050.54C262.2 1048.3 262.2 1048.3 266.67 1046.07C271.13 1043.84 268.9 1046.07 273.37 1043.84C277.83 1050.54 286.76 1057.23 291.23 1063.93C295.7 1068.4 297.93 1068.4 302.39 1072.87C306.86 1077.33 309.09 1079.57 311.32 1077.33L306.86 1075.1L304.62 1075.1C304.62 1075.1 304.62 1075.1 302.39 1075.1L295.7 1072.87C273.37 1070.63 217.54 1090.73 208.6 1115.29C213.07 1124.23 208.6 1115.29 213.07 1119.76C213.07 1121.99 215.31 1124.23 215.31 1124.23C246.57 1146.56 291.23 1144.32 324.73 1126.46C333.65 1121.99 342.59 1110.82 353.75 1110.82C355.98 1115.29 385.02 1135.39 389.48 1133.15C360.45 1128.7 302.39 1166.65 297.93 1191.22C309.09 1206.85 286.76 1184.52 302.39 1195.68C304.62 1195.68 304.62 1197.92 306.86 1197.92C309.09 1200.15 313.56 1200.15 318.03 1202.39C387.25 1224.71 420.75 1171.12 440.84 1162.18C443.08 1162.18 443.08 1162.18 445.31 1164.42L481.04 1177.82C483.28 1177.82 478.81 1180.06 483.28 1177.82C460.94 1177.82 445.31 1186.76 431.92 1202.39C429.68 1202.39 429.68 1202.39 429.68 1202.39C429.68 1202.39 429.68 1202.39 429.68 1204.62L418.51 1213.56C416.28 1218.01 414.05 1220.25 409.58 1226.95C407.34 1231.42 400.65 1238.12 400.65 1244.81C400.65 1251.51 400.65 1253.75 407.34 1255.98C454.25 1264.92 483.28 1253.75 516.77 1222.48C521.24 1218.01 534.64 1200.15 536.87 1195.68C554.73 1197.92 568.13 1202.39 586 1206.85L597.16 1209.09L599.39 1209.09L603.86 1211.32L603.86 1211.32L617.27 1215.78C626.19 1218.01 632.89 1222.48 641.83 1224.71C641.83 1231.42 644.05 1226.95 637.36 1231.42L592.69 1258.21C577.06 1273.84 570.36 1273.84 568.13 1289.48C581.53 1298.4 588.23 1311.81 601.63 1298.4L679.79 1242.58C693.19 1255.98 742.32 1278.31 760.18 1305.11L773.58 1305.11C780.27 1296.17 795.91 1291.7 784.74 1278.31L778.04 1269.37L775.82 1269.37L771.35 1264.92C764.65 1258.21 760.18 1253.75 753.48 1249.28C744.55 1244.81 722.22 1229.18 713.28 1226.95L764.65 1206.85C771.35 1204.62 784.74 1202.39 793.68 1200.15C802.6 1197.92 811.54 1195.68 822.71 1195.68C827.18 1204.62 836.1 1215.78 845.04 1222.48L865.13 1240.34C905.33 1269.37 927.66 1255.98 958.93 1253.75C956.69 1222.48 912.03 1177.82 876.3 1177.82C894.16 1177.82 905.33 1164.42 920.96 1162.18C925.43 1171.12 938.82 1180.06 945.52 1184.52C949.99 1188.98 956.69 1191.22 961.15 1193.45C972.32 1200.15 985.73 1206.85 999.12 1206.85C1008.06 1206.85 1057.18 1204.62 1059.42 1193.45C1059.42 1191.22 1061.65 1191.22 1061.65 1191.22C1059.42 1182.29 1059.42 1184.52 1052.71 1177.82L1048.25 1171.12C1025.92 1151.02 1005.82 1128.7 967.85 1133.15C981.26 1128.7 1001.35 1110.82 1010.29 1110.82C1019.21 1126.46 1086.21 1155.49 1135.34 1128.7C1153.2 1119.76 1153.2 1113.06 1139.81 1101.9C1115.24 1086.26 1086.21 1066.16 1054.95 1075.1L1046.01 1079.57C1048.25 1079.57 1052.71 1075.1 1057.18 1072.87L1088.45 1043.84C1090.68 1048.3 1097.37 1050.54 1104.07 1052.77C1148.73 1066.16 1173.3 1066.16 1213.5 1039.37C1220.2 1034.9 1229.13 1030.43 1220.2 1021.51C1213.5 1012.57 1200.09 1008.1 1188.93 1003.63L1177.76 1001.4C1166.6 996.94 1157.67 994.71 1144.28 996.94C1137.57 999.18 1126.4 1001.4 1121.94 1005.87C1133.11 1001.4 1144.28 970.15 1155.44 965.68C1159.9 972.38 1164.37 970.15 1173.3 970.15C1177.76 972.38 1188.93 974.6 1193.4 974.6C1211.26 976.84 1235.83 970.15 1251.45 961.21C1264.86 952.27 1282.72 938.88 1282.72 921.02C1264.86 914.32 1244.76 907.62 1224.67 907.62C1213.5 907.62 1204.56 909.85 1195.64 914.32C1188.93 916.55 1180 918.78 1177.76 925.48C1188.93 921.02 1193.4 898.68 1200.09 887.52C1202.33 883.05 1204.56 880.82 1209.03 878.58C1209.03 878.58 1211.26 878.58 1211.26 880.82L1217.97 880.82C1220.2 880.82 1226.89 880.82 1229.13 880.82C1247 878.58 1269.33 874.12 1282.72 867.42C1302.83 856.25 1320.69 836.16 1322.92 813.83C1298.36 804.89 1251.45 804.89 1229.13 824.99C1224.67 827.22 1224.67 829.46 1224.67 831.69C1224.67 824.99 1231.36 813.83 1231.36 807.13L1240.3 782.56C1276.03 782.56 1311.75 769.16 1329.62 737.91C1336.31 726.74 1343.02 717.8 1343.02 702.17C1311.75 702.17 1293.89 702.17 1269.33 713.33C1262.62 717.8 1258.16 720.03 1251.45 728.97C1249.23 733.44 1249.23 733.44 1249.23 737.91C1251.45 720.03 1255.92 704.41 1255.92 686.53C1260.39 684.3 1264.86 684.3 1271.56 682.08C1280.49 679.84 1280.49 677.61 1287.19 675.37C1322.92 657.5 1343.02 630.72 1343.02 588.28C1320.69 588.28 1302.83 594.98 1284.95 606.14C1280.49 606.14 1282.72 606.14 1280.49 608.38C1264.86 617.31 1267.09 624.01 1258.16 632.94C1258.16 617.31 1255.92 601.68 1255.92 583.81C1282.72 570.42 1316.22 550.32 1322.92 516.83C1325.15 501.19 1325.15 492.26 1325.15 474.39C1309.52 474.39 1305.05 478.86 1293.89 483.33C1280.49 490.03 1271.56 496.73 1262.62 507.89L1247 536.92C1247 512.36 1238.06 498.95 1235.83 481.09C1249.23 478.86 1271.56 449.83 1280.49 438.67C1289.42 423.03 1296.12 382.84 1282.72 364.98C1271.56 367.2 1267.09 371.67 1260.39 376.14C1242.53 389.54 1222.43 405.17 1222.43 431.97L1200.09 385.07C1211.26 378.37 1222.43 360.51 1226.89 349.34L1233.59 338.18C1238.06 327.01 1242.53 315.84 1240.3 297.98L1231.36 271.18C1229.13 262.26 1231.36 273.42 1229.13 264.48C1211.26 266.71 1200.09 282.35 1191.17 295.74C1180 313.62 1177.76 318.07 1177.76 347.11C1180 344.87 1175.53 338.18 1173.3 333.71C1168.84 324.78 1153.2 300.21 1146.5 295.74C1162.14 286.82 1180 237.68 1168.84 204.19C1164.37 190.79 1155.44 166.23 1139.81 184.09L1128.64 204.19C1126.4 204.19 1126.4 204.19 1126.4 204.19C1126.4 206.43 1126.4 206.43 1126.4 206.43L1124.17 210.88C1119.7 222.05 1108.54 251.09 1119.7 262.26C1115.24 253.32 1088.45 224.29 1079.51 219.82C1099.61 197.49 1104.07 146.13 1075.04 112.63C1070.58 103.7 1075.04 105.93 1063.88 103.7C1054.95 103.7 1052.71 119.33 1050.48 123.8C1048.25 132.73 1043.78 137.19 1041.54 146.13C1039.32 161.76 1041.54 190.79 1050.48 195.26C1048.25 188.56 1039.32 184.09 1030.38 181.85C1032.62 188.56 1032.62 188.56 1037.09 193.02C1039.32 195.26 1039.32 197.49 1041.54 197.49C1046.01 204.19 1041.54 193.02 1043.78 201.96C1043.78 208.65 1050.48 217.59 1054.95 215.35C1052.71 215.35 1046.01 208.65 1032.62 206.43C1008.06 201.96 985.73 213.12 967.85 226.52C956.69 235.45 963.39 228.76 958.93 237.68L965.62 244.38C1010.29 284.59 1063.88 244.38 1079.51 239.92C1083.98 246.62 1095.14 257.79 1101.84 264.48C1106.31 271.18 1119.7 286.82 1124.17 289.04C1117.48 282.35 1099.61 273.42 1090.68 271.18C1075.04 268.95 1059.42 273.42 1046.01 277.88C1034.85 282.35 1030.38 284.59 1021.45 289.04C1023.68 306.91 1021.45 293.51 1025.92 300.21L1030.38 306.91C1059.42 327.01 1075.04 331.48 1113.01 324.78C1124.17 324.78 1133.11 318.07 1142.04 315.84L1173.3 369.43C1168.84 356.04 1146.5 349.34 1133.11 347.11C1117.48 344.87 1088.45 347.11 1075.04 358.28C1077.28 389.54 1135.34 420.81 1188.93 402.93C1191.17 416.34 1200.09 429.73 1204.56 443.13C1204.56 447.59 1209.03 449.83 1204.56 449.83C1200.09 443.13 1182.23 431.97 1171.07 429.73C1159.9 427.5 1128.64 429.73 1115.24 429.73C1115.24 445.37 1115.24 440.9 1119.7 452.06L1137.57 474.39C1150.97 485.56 1166.6 494.5 1184.47 496.73C1215.73 501.19 1217.97 490.03 1224.67 514.59L1233.59 557.02C1229.13 541.39 1215.73 530.22 1200.09 521.29C1180 512.36 1164.37 512.36 1139.81 512.36C1139.81 532.45 1148.73 548.09 1159.9 563.72L1168.84 572.65C1231.36 619.55 1238.06 561.48 1238.06 655.28C1231.36 617.31 1186.7 594.98 1150.97 594.98C1150.97 635.17 1166.6 664.21 1202.33 684.3L1224.67 695.47C1233.59 697.7 1229.13 693.24 1231.36 697.7C1235.83 702.17 1226.89 744.6 1224.67 746.83C1224.67 720.03 1200.09 695.47 1177.76 684.3C1168.84 682.08 1166.6 677.61 1159.9 677.61L1153.2 677.61C1153.2 675.37 1150.97 677.61 1150.97 677.61L1150.97 679.84L1148.73 682.08L1148.73 684.3C1142.04 722.27 1159.9 755.77 1188.93 778.1C1209.03 791.49 1213.5 787.03 1213.5 795.96C1209.03 800.43 1206.8 811.6 1202.33 820.52C1191.17 849.55 1197.87 842.85 1197.87 842.85C1197.87 829.46 1197.87 820.52 1193.4 809.36C1186.7 791.49 1155.44 758 1135.34 755.77L1130.87 762.47C1119.7 782.56 1126.4 818.29 1135.34 836.16L1155.44 862.96C1159.9 867.42 1173.3 880.82 1177.76 883.05C1171.07 889.75 1168.84 898.68 1162.14 907.62L1153.2 923.24C1162.14 907.62 1148.73 876.35 1144.28 867.42C1137.57 856.25 1128.64 842.85 1119.7 836.16C1117.48 833.92 1110.78 827.22 1104.07 833.92L1095.14 849.55C1092.9 854.02 1090.68 858.49 1090.68 865.19C1088.45 871.88 1088.45 878.58 1088.45 887.52C1088.45 898.68 1090.68 898.68 1092.9 907.62L1124.17 965.68C1121.94 967.91 1110.78 981.31 1106.31 985.77C1101.84 990.24 1104.07 990.24 1099.61 994.71C1097.37 996.94 1095.14 996.94 1095.14 999.18L1095.14 1001.4L1095.14 1003.63C1095.14 1001.4 1095.14 1003.63 1095.14 1003.63C1095.14 996.94 1097.37 996.94 1099.61 990.24C1104.07 976.84 1099.61 958.98 1095.14 945.58L1083.98 921.02C1077.28 912.08 1072.81 905.38 1068.34 898.68C1054.95 903.15 1063.88 896.46 1057.18 905.38C1043.78 918.78 1034.85 947.82 1034.85 965.68C1034.85 983.54 1046.01 1025.97 1059.42 1034.9C1052.71 1039.37 1048.25 1043.84 1043.78 1050.54C1041.54 1050.54 1034.85 1055.01 1034.85 1055.01C1032.62 1057.23 1037.09 1057.23 1030.38 1055.01L1030.38 1052.77L1034.85 1028.21C1034.85 1003.63 1028.15 981.31 1014.75 961.21C1001.35 963.44 1008.06 961.21 1001.35 965.68L985.73 983.54C979.02 992.47 974.56 1003.63 970.09 1017.04C965.62 1043.84 972.32 1072.87 981.26 1097.43L938.82 1124.23C952.23 1119.76 961.15 1092.96 963.39 1075.1C965.62 1050.54 956.69 1028.21 952.23 1010.34C934.35 1010.34 925.43 1021.51 916.49 1034.9L914.26 1034.9L914.26 1037.13L898.63 1059.46C891.93 1075.1 891.93 1104.13 891.93 1124.23C891.93 1135.39 894.16 1135.39 894.16 1144.32C887.46 1144.32 851.74 1157.73 849.51 1162.18L867.37 1144.32C882.99 1126.46 887.46 1070.63 880.77 1052.77C878.54 1052.77 880.77 1050.54 874.07 1050.54C871.83 1050.54 869.6 1052.77 867.37 1052.77C865.13 1052.77 862.9 1052.77 860.66 1055.01C845.04 1063.93 829.4 1075.1 820.47 1090.73C807.07 1108.59 800.38 1137.62 800.38 1168.89C793.68 1171.12 778.04 1175.59 769.11 1177.82C764.65 1177.82 757.94 1180.06 753.48 1182.29C749.02 1182.29 742.32 1184.52 737.85 1186.76L679.79 1209.09C677.55 1209.09 655.22 1200.15 650.75 1197.92C630.66 1188.98 610.56 1182.29 588.23 1177.82C579.3 1175.59 565.89 1173.35 559.2 1168.89C559.2 1137.62 552.5 1108.59 539.1 1090.73C525.7 1070.63 503.37 1050.54 478.81 1048.3C469.87 1072.87 472.11 1110.82 485.5 1135.39C489.97 1144.32 494.44 1151.02 503.37 1157.73C512.3 1164.42 505.61 1159.95 483.28 1151.02C458.72 1142.09 463.17 1144.32 467.64 1130.93C467.64 1126.46 467.64 1124.23 467.64 1119.76C467.64 1081.79 465.41 1057.23 438.61 1030.43C429.68 1019.27 425.22 1012.57 409.58 1012.57C409.58 1012.57 409.58 1014.8 407.34 1014.8C398.42 1030.43 393.95 1055.01 396.18 1075.1C396.18 1084.03 409.58 1121.99 418.51 1121.99C411.81 1113.06 393.95 1108.59 382.78 1099.66L382.78 1099.66C380.55 1097.43 378.32 1104.13 378.32 1092.96C380.55 1088.49 380.55 1088.49 382.78 1084.03C389.48 1057.23 393.95 1025.97 380.55 999.18C376.09 988.01 369.39 981.31 362.69 970.15C355.98 963.44 355.98 963.44 347.06 961.21C333.65 972.38 329.19 994.71 324.73 1010.34C320.26 1028.21 324.73 1057.23 333.65 1066.16C331.42 1057.23 313.56 1048.3 306.86 1043.84C304.62 1039.37 302.39 1039.37 300.17 1034.9C311.32 1023.74 322.49 990.24 322.49 965.68C322.49 943.35 318.03 932.18 309.09 914.32C309.09 914.32 309.09 914.32 306.86 914.32L297.93 898.68C284.53 900.91 282.29 909.85 275.59 918.78C262.2 941.11 255.5 965.68 259.96 990.24C262.2 1005.87 264.43 1001.4 264.43 1001.4C262.2 999.18 235.4 965.68 233.17 963.44C242.1 958.98 253.26 941.11 257.73 929.94C266.67 909.85 275.59 887.52 266.67 862.96C264.43 854.02 264.43 845.08 259.96 838.39C246.57 822.76 242.1 833.92 237.63 838.39L215.31 867.42C206.37 880.82 201.9 900.91 204.14 925.48C206.37 923.24 206.37 925.48 204.14 923.24C199.67 907.62 186.27 896.46 181.81 880.82C190.74 878.58 195.2 871.88 199.67 865.19C201.9 862.96 204.14 860.72 206.37 860.72C208.6 856.25 213.07 851.79 215.31 847.32C226.47 833.92 233.17 816.05 233.17 795.96C233.17 771.39 226.47 764.69 226.47 758C224.23 755.77 224.23 755.77 224.23 755.77C213.07 755.77 213.07 755.77 206.37 760.23C201.9 764.69 201.9 766.93 197.43 769.16C190.74 773.63 184.04 780.33 179.57 787.03C172.87 793.72 168.4 800.43 166.18 809.36C161.71 818.29 161.71 829.46 161.71 840.63C159.48 833.92 157.24 827.22 155.01 818.29C150.54 809.36 146.07 800.43 146.07 791.49C148.31 789.27 148.31 791.49 150.54 789.27C168.4 780.33 184.04 766.93 195.2 753.53C206.37 735.67 217.54 699.94 208.6 677.61L199.67 677.61C192.98 677.61 186.27 684.3 179.57 686.53C170.64 691 166.18 693.24 157.24 699.94C148.31 708.87 134.91 728.97 132.68 746.83C132.68 726.74 125.98 715.57 123.74 697.7C150.54 691 179.57 675.37 192.98 653.05C195.2 648.58 195.2 650.81 197.43 644.11C206.37 626.25 206.37 619.55 206.37 594.98C179.57 594.98 152.78 606.14 134.91 626.25L123.74 648.58C121.51 653.05 121.51 659.74 121.51 648.58C121.51 632.94 121.51 615.08 121.51 599.45C130.45 594.98 148.31 592.75 155.01 590.52C157.24 588.28 161.71 588.28 163.94 586.05C195.2 574.89 217.54 550.32 217.54 512.36C195.2 512.36 175.1 514.59 155.01 523.53C128.21 536.92 121.51 570.42 125.98 550.32L132.68 523.53C134.91 514.59 137.15 507.89 137.15 498.95C166.18 498.95 190.74 494.5 208.6 483.33C224.23 474.39 230.93 463.23 239.87 449.83L242.1 434.2C242.1 431.97 242.1 431.97 242.1 431.97L239.87 431.97L237.63 429.73L226.47 429.73C222 429.73 215.31 429.73 210.84 429.73C197.43 429.73 190.74 429.73 181.81 431.97C168.4 438.67 152.78 447.59 148.31 458.76C155.01 454.29 157.24 438.67 159.48 429.73C161.71 423.03 163.94 414.1 168.4 409.64C172.87 402.93 161.71 407.4 172.87 405.17C170.64 402.93 168.4 407.4 206.37 407.4C237.63 407.4 280.06 391.77 284.53 356.04C255.5 344.87 213.07 342.64 188.51 364.98C184.04 367.2 184.04 369.43 184.04 371.67C188.51 367.2 192.98 358.28 195.2 351.57L197.43 349.34C199.67 347.11 199.67 344.87 201.9 342.64L206.37 333.71C208.6 331.48 208.6 329.24 210.84 327.01C213.07 322.54 217.54 313.62 217.54 318.07C228.7 318.07 224.23 320.31 235.4 322.54C257.73 329.24 280.06 331.48 302.39 322.54L315.79 313.62C329.19 304.68 335.89 302.45 335.89 289.04C309.09 271.18 271.13 264.48 244.34 282.35L244.34 280.12L244.34 280.12C244.34 277.88 246.57 277.88 246.57 277.88L271.13 248.85C273.37 244.38 275.59 239.92 282.29 239.92C286.76 248.85 324.73 260.02 340.36 262.26C360.45 264.48 373.86 257.79 389.48 248.85C427.45 226.52 333.65 204.19 304.62 215.35C322.49 210.88 342.59 181.85 355.98 168.46C382.78 190.79 418.51 219.82 465.41 193.02C463.17 184.09 456.48 181.85 447.55 175.16C405.12 143.9 396.18 166.23 364.92 166.23C369.39 157.29 369.39 155.07 380.55 152.83C371.62 141.66 382.78 139.43 389.48 130.49C405.12 110.4 400.65 63.5 389.48 52.34L387.25 54.57C387.25 54.57 387.25 54.57 385.02 54.57L371.62 72.44C342.59 110.4 364.92 146.13 362.69 163.99L353.75 166.23L353.75 166.23Z" />
		<path id="Layer" fill-rule="evenodd" class="shp1" d="M894.16 193.02C918.73 199.73 927.66 210.88 958.93 197.49C970.09 193.02 974.56 190.79 983.49 184.09L999.12 170.69C1003.59 166.23 999.12 172.93 1003.59 166.23C990.18 161.76 999.12 166.23 990.18 166.23C985.73 166.23 958.93 155.07 938.82 159.52C929.9 161.76 918.73 170.69 914.26 175.16C903.1 181.85 896.4 184.09 894.16 193.02ZM994.65 181.85C979.02 193.02 952.23 208.65 932.13 208.65C918.73 208.65 896.4 201.96 889.7 193.02C891.93 184.09 912.03 170.69 920.96 163.99C943.29 152.83 943.29 155.07 967.85 155.07C967.85 143.9 929.9 128.27 918.73 126.04C912.03 132.73 916.49 132.73 907.57 134.96C907.57 132.73 916.49 119.33 918.73 117.1C903.1 117.1 918.73 121.57 903.1 121.57C900.87 121.57 891.93 119.33 887.46 119.33C858.43 117.1 831.63 134.96 818.24 159.52C827.18 168.46 851.74 168.46 867.37 161.76C880.77 157.29 882.99 152.83 891.93 146.13C896.4 141.66 896.4 143.9 900.87 139.43C887.46 163.99 842.8 181.85 811.54 163.99C816.01 148.36 845.04 119.33 865.13 114.87C882.99 112.63 885.23 114.87 896.4 114.87C894.16 110.4 889.7 110.4 882.99 108.16C847.27 94.77 858.43 103.7 831.63 108.16C813.77 110.4 778.04 88.07 773.58 74.67C789.21 63.5 816.01 61.27 833.87 70.21C840.57 74.67 849.51 81.37 853.97 88.07C862.9 94.77 858.43 90.3 865.13 94.77C869.6 94.77 876.3 97 878.54 97C880.77 90.3 840.57 63.5 862.9 9.91C878.54 14.38 896.4 30.01 905.33 45.64C918.73 74.67 912.03 83.6 912.03 112.63C925.43 119.33 967.85 141.66 970.09 139.43C967.85 128.27 954.46 126.04 954.46 97C954.46 81.37 956.69 61.27 967.85 50.1C981.26 56.8 999.12 74.67 1003.59 92.54C1010.29 121.57 1001.35 137.19 999.12 159.52C1010.29 166.23 1019.21 177.4 1030.38 181.85C1032.62 188.56 1032.62 188.56 1037.09 193.02C1039.32 195.26 1039.32 197.49 1041.54 197.49C1042.42 198.81 1042.95 199.43 1043.26 199.66C1043.36 200.21 1043.53 200.96 1043.78 201.96C1005.82 177.4 1010.29 166.23 994.65 181.85ZM778.04 76.9C782.51 83.6 784.74 85.83 793.68 90.3C798.14 92.54 793.68 90.3 798.14 92.54C816.01 103.7 838.34 108.16 856.2 94.77L849.51 85.83C842.8 79.13 833.87 74.67 824.94 72.44C809.3 67.97 789.21 70.21 778.04 76.9ZM905.33 110.4C914.26 103.7 905.33 59.04 903.1 50.1C898.63 38.94 878.54 18.85 865.13 14.38C853.97 83.6 871.83 72.44 896.4 103.7C900.87 110.4 903.1 110.4 905.33 110.4ZM983.49 157.29C985.73 152.83 985.73 157.29 994.65 161.76C994.65 137.19 1005.82 126.04 999.12 94.77C994.65 74.67 979.02 59.04 967.85 52.34C941.06 139.43 981.26 117.1 983.49 157.29Z" />
		<path id="Layer" fill-rule="evenodd" class="shp1" d="M353.75 166.23C358.22 157.29 360.45 166.23 358.22 155.07C358.22 141.66 349.29 132.73 355.98 97C358.22 79.13 378.32 54.57 391.72 50.1C402.89 70.21 409.58 103.7 398.42 121.57C396.18 126.04 389.48 132.73 389.48 139.43L445.31 112.63C445.31 101.47 440.84 70.21 454.25 45.64C460.94 32.24 481.04 12.14 496.67 9.91C501.14 25.54 503.37 43.41 498.91 59.04C492.2 92.54 485.5 83.6 478.81 99.24C514.53 92.54 516.77 56.8 556.97 65.74C568.13 67.97 579.3 70.21 586 74.67C583.77 79.13 583.77 79.13 579.3 81.37C572.6 94.77 543.56 108.16 527.94 108.16C516.77 108.16 505.61 99.24 496.67 99.24C492.2 99.24 474.34 108.16 469.87 110.4C472.11 121.57 467.64 110.4 494.44 114.87C516.77 121.57 543.56 150.6 545.8 163.99C507.84 179.63 474.34 161.76 454.25 141.66C436.38 121.57 449.78 114.87 389.48 150.6C387.25 150.6 385.02 150.6 382.78 152.83C378.32 157.29 380.55 155.07 380.55 157.29C389.48 161.76 400.65 146.13 434.14 161.76C445.31 168.46 467.64 184.09 469.87 195.26C449.78 206.43 425.22 213.12 400.65 201.96C389.48 197.49 382.78 193.02 373.86 186.32C362.69 179.63 358.22 170.69 347.06 177.4L355.98 168.46C382.78 190.79 418.51 219.82 465.41 193.02C463.17 184.09 456.48 181.85 447.55 175.16C405.12 143.9 396.18 166.23 364.92 166.23C369.39 157.29 369.39 155.07 380.55 152.83C371.62 141.66 382.78 139.43 389.48 130.49C405.12 110.4 400.65 63.5 389.48 52.34L387.25 54.57C387.25 54.57 387.25 54.57 385.02 54.57L371.62 72.44C342.59 110.4 364.92 146.13 362.69 163.99L353.75 166.23ZM579.3 74.67C570.36 74.67 552.5 65.74 532.41 72.44C523.47 74.67 505.61 85.83 503.37 97C516.77 101.47 530.17 105.93 545.8 99.24C561.44 94.77 568.13 85.83 579.3 81.37C579.3 81.37 579.3 76.9 579.3 74.67ZM449.78 112.63C454.25 110.4 458.72 108.16 460.94 105.93C465.41 103.7 465.41 101.47 469.87 97C472.11 94.77 476.58 90.3 478.81 88.07C501.14 67.97 501.14 25.54 492.2 14.38C443.08 34.47 452.01 85.83 449.78 112.63ZM521.24 137.19C519 132.73 521.24 134.96 516.77 132.73C514.53 130.49 507.84 126.04 505.61 123.8C481.04 112.63 463.17 121.57 456.48 121.57C440.84 121.57 456.48 117.1 440.84 117.1C445.31 130.49 467.64 150.6 478.81 155.07C494.44 166.23 521.24 170.69 541.33 161.76C536.87 148.36 530.17 143.9 521.24 137.19Z" />
		<path id="Layer" fill-rule="evenodd" class="shp1" d="M894.16 193.02C918.73 199.73 927.66 210.88 958.93 197.49C970.09 193.02 974.56 190.79 983.49 184.09L999.12 170.69C1003.59 166.23 999.12 172.93 1003.59 166.23C990.18 161.76 999.12 166.23 990.18 166.23C985.73 166.23 958.93 155.07 938.82 159.52C929.9 161.76 918.73 170.69 914.26 175.16C903.1 181.85 896.4 184.09 894.16 193.02L894.16 193.02Z" />
		<path id="Layer" fill-rule="evenodd" class="shp1" d="M967.85 52.34C941.06 139.43 981.26 117.1 983.49 157.29C985.73 152.83 985.73 157.29 994.65 161.76C994.65 137.19 1005.82 126.04 999.12 94.77C994.65 74.67 979.02 59.04 967.85 52.34L967.85 52.34Z" />
		<path id="Layer" fill-rule="evenodd" class="shp1" d="M541.33 161.76C536.87 148.36 530.17 143.9 521.24 137.19C519 132.73 521.24 134.96 516.77 132.73C514.53 130.49 507.84 126.04 505.61 123.8C481.04 112.63 463.17 121.57 456.48 121.57C440.84 121.57 456.48 117.1 440.84 117.1C445.31 130.49 467.64 150.6 478.81 155.07C494.44 166.23 521.24 170.69 541.33 161.76Z" />
		<path id="Layer" fill-rule="evenodd" class="shp1" d="M449.78 112.63C454.25 110.4 458.72 108.16 460.94 105.93C465.41 103.7 465.41 101.47 469.87 97C472.11 94.77 476.58 90.3 478.81 88.07C501.14 67.97 501.14 25.54 492.2 14.38C443.08 34.47 452.01 85.83 449.78 112.63L449.78 112.63Z" />
		<path id="Layer" fill-rule="evenodd" class="shp1" d="M905.33 110.4C914.26 103.7 905.33 59.04 903.1 50.1C898.63 38.94 878.54 18.85 865.13 14.38C853.97 83.6 871.83 72.44 896.4 103.7C900.87 110.4 903.1 110.4 905.33 110.4L905.33 110.4Z" />
		<path id="Layer" fill-rule="evenodd" class="shp1" d="M793.68 90.3C798.14 92.54 793.68 90.3 798.14 92.54C816.01 103.7 838.34 108.16 856.2 94.77L849.51 85.83C842.8 79.13 833.87 74.67 824.94 72.44C809.3 67.97 789.21 70.21 778.04 76.9C782.51 83.6 784.74 85.83 793.68 90.3Z" />
		<path id="Layer" fill-rule="evenodd" class="shp1" d="M579.3 81.37C579.3 81.37 579.3 76.9 579.3 74.67C570.36 74.67 552.5 65.74 532.41 72.44C523.47 74.67 505.61 85.83 503.37 97C516.77 101.47 530.17 105.93 545.8 99.24C561.44 94.77 568.13 85.83 579.3 81.37Z" />
		<path id="Layer" fill-rule="evenodd" class="shp2" d="M904.58 117.31C885.39 110.15 872.61 116.53 854.41 120.81C850.22 121.79 832.83 134.68 829.87 139.88C829.31 140.88 812.06 161.91 815.67 162.79C831.59 166.69 826.56 169.66 849.73 169.66C873.84 169.66 911.9 149.8 917.74 125.61C921.18 111.35 906.2 121.74 903.21 117.39L903.1 121.57L904.58 117.31Z" />
		<path id="Layer" fill-rule="evenodd" class="shp1" d="M1646.32 700.74L1646.32 921.19L1596.59 921.19L1596.59 426.1L1704.22 426.1C1748.26 426.1 1782.03 437.48 1805.54 460.24C1829.04 483 1840.79 515.42 1840.79 557.48C1840.79 602.01 1829.54 637.02 1807.02 662.51C1784.51 687.99 1755.68 700.74 1720.55 700.74L1646.32 700.74ZM1646.32 470.63L1646.32 655.46L1716.09 655.46C1738.86 655.46 1756.67 646.92 1769.54 629.85C1782.4 612.78 1788.84 588.65 1788.84 557.48C1788.84 527.79 1781.54 505.89 1766.94 491.79C1752.34 477.68 1731.19 470.63 1703.47 470.63L1646.32 470.63Z" />
		<path id="1" class="shp1" d="M2018.2 921.19L2067.93 921.19L2067.93 739.33L2220.83 739.33L2220.83 921.19L2270.57 921.19L2270.57 534.47L2220.83 534.47L2220.83 694.8L2067.93 694.8L2067.93 534.47L2018.2 534.47L2018.2 921.19Z" />
		<path id="2" class="shp1" d="M2483.6 921.19L2724.83 921.19L2724.83 876.65L2533.33 876.65L2533.33 739.33L2691.43 739.33L2691.43 694.8L2533.33 694.8L2533.33 579L2724.83 579L2724.83 534.47L2483.6 534.47L2483.6 921.19Z" />
		<path id="3" class="shp1" d="M3035.1 812.08L3121.95 607.95L3123.43 607.95L3133.08 921.19L3185.78 921.19L3170.19 534.47L3104.87 534.47L3035.1 702.22L2965.33 534.47L2900.01 534.47L2884.42 921.19L2937.12 921.19L2946.77 607.95L2948.26 607.95L3035.1 812.08Z" />
		<path id="4" class="shp1" d="M3374.32 921.19L3615.55 921.19L3615.55 876.65L3424.05 876.65L3424.05 739.33L3582.15 739.33L3582.15 694.8L3424.05 694.8L3424.05 579L3615.55 579L3615.55 534.47L3374.32 534.47L3374.32 921.19Z" />
		<path id="5" class="shp1" d="M4123.26 637.64L3942.15 637.64L3942.15 456.53L3909.49 456.53L3909.49 637.64L3728.38 637.64L3728.38 670.3L3909.49 670.3L3909.49 851.42L3942.15 851.42L3942.15 670.3L4123.26 670.3L4123.26 637.64Z" />
	</g>
</svg>